<?xml version="1.0" encoding="UTF-8" standalone="no"?>
<svg width="177px" height="326px" viewBox="0 0 177 326" version="1.1" xmlns="http://www.w3.org/2000/svg" xmlns:xlink="http://www.w3.org/1999/xlink" xmlns:sketch="http://www.bohemiancoding.com/sketch/ns">
    <!-- Generator: Sketch 3.5.1 (25234) - http://www.bohemiancoding.com/sketch -->
    <title>logo-splv-text</title>
    <desc>Created with Sketch.</desc>
    <defs>
        <path d="M143.808673,116.26309 C143.107574,113.225807 142.705016,110.582502 142.702232,108.80592 C142.678869,93.8980139 148.817186,73.9303603 133.050586,64.0878569 C137.430048,77.4448027 129.860855,92.5694578 123.912194,99.0425489 C137.86085,69.0878569 113.912943,33.8729644 109.154019,22.2214004 C104.395094,10.5698364 109.649933,1.93158199 110.343752,0.212890625 C100.037111,9.42773438 103.803895,20.8349923 102.64844,34.3867187 C101.180953,51.598091 97.1990025,59.7451426 92.6885818,59.7451426 C81.9810022,59.7451426 80.780022,45.0935786 80.7800207,32.2640439 C67.0836915,50.2720515 69.4631536,67.1020884 69.4631536,83.9321253 C69.4631536,86.5303806 69.260639,95.1519819 66.0673107,104.434331 C69.726222,104.812812 73.1805552,105.5463 76.3883436,106.603311 L117.102581,106.603312 C128.504707,106.603312 137.377795,110.193794 143.808673,116.26309 Z M156.024866,141.845377 C156.146255,141.913759 156.26754,141.975743 156.388676,142.031113 C156.205793,141.650496 156.034057,141.262091 155.873133,140.866617 C155.443211,138.2369 154.847841,135.703037 154.085405,133.285728 C152.762196,120.004126 159.00124,104.311016 164.350474,104.311017 C160.414395,111.988731 158.108847,120.389395 162.793857,127.52415 C166.177204,132.676614 175.79102,160.056641 167.263676,183 C177.967945,168.754593 174.77822,163.274246 173.967945,151.951172 C189.640629,179 175.013676,205.433517 163.350468,219.78125 C148.178992,238.444749 152.115399,242.622955 138.702229,254.041016 C129.398472,261.960907 115.886422,263.424211 101.12274,263.578061 L101.12274,200.704875 C102.923286,200.704875 114.401763,200.929998 116.202309,200.929998 C137.358718,200.929998 156.714581,184.27087 156.714581,151.627983 C156.714581,148.259211 156.485571,144.986887 156.024866,141.845377 Z M71.5714286,176.825832 L55.4610455,158.391036 C48.9340682,150.961965 47.5836591,145.784128 47.5836591,139.030427 C47.5836591,131.826479 52.9852955,126.648642 60.1874773,126.648642 C65.0864959,126.648642 69.5115765,129.848508 71.5714297,135.818296 L71.5714286,176.825832 Z M51.3769701,104.787337 C46.0576744,86.7121378 35.796179,76.0288849 27.253373,77.45903 C36.0122975,84.5213575 40.1555121,98.4827248 33.2020286,108.824486 C32.1807774,110.34337 31.176272,112.073163 30.2038103,113.981088 C35.6853268,109.25618 42.930303,106.079215 51.3769701,104.787337 Z M19.9629843,151.541649 C18.5285015,166.362461 19.9756816,181.596118 26.4140627,192.722656 C15.5312502,188.033203 10.95815,180.583992 10.4599431,168.754595 C1.86580339,183.246544 4.24526553,201.915107 5.43499659,210.433521 C8.53043367,232.596692 16.9655994,245.594568 27.416368,253.184287 C22.2675023,247.433499 19.2250682,239.852324 19.2250682,230.655633 L19.2250682,214.221628 L47.5836591,214.221628 L47.5836591,228.854646 C47.5836591,238.53495 52.9852955,243.262541 60.1874773,243.262541 C67.164591,243.262541 72.7912955,238.084704 72.7912955,228.854646 C72.7912955,220.525082 69.4152728,214.221628 63.5635001,207.467927 L40.1564091,183.379728 C28.6108388,169.731618 22.2319585,163.699444 19.9629843,151.541649 Z M87.8931598,150.226844 L86.779494,149.042944 L86.0768159,148.777465 L85.69204,147.291121 L84.5642602,146.87274 L83.8353703,145.673382 L83.1851158,144.824859 L84.3730484,144.496203 L85.6134046,143.050521 L86.7411844,142.990704 L88.2419785,141.440847 L88.6496057,141.758749 L91.6404403,139.372467 L92.5329859,138.1143 L93.2763259,137.546713 L93.6611018,136.444809 L94.9417839,137.752039 L96.4916411,137.875369 L96.9852968,137.378353 L97.7249403,135.71592 L99.0738403,135.543863 L99.1598688,134.583435 L100.191203,132.536562 L100.632099,131.146664 L101.525652,131.001154 L102.836579,131.524383 L104.629063,131.614108 L104.950326,132.167244 L104.333676,133.049036 L103.795998,135.046846 L104.38274,135.962243 L108.088014,136.526133 L108.924776,134.647956 L109.518574,134.236633 L109.432545,133.534291 L108.359541,132.981154 L107.518411,131.82313 L107.839674,130.952091 L108.201598,129.756094 L107.476405,129.401226 L106.48943,129.307804 L105.999807,128.646124 L106.496823,127.136929 L108.046344,127.226318 L109.857983,126.920514 L110.388604,127.241776 L111.277453,127.978059 L112.965763,127.843976 L114.605345,129.124994 L115.613827,128.852794 L118.358674,131.818425 L119.064713,132.176989 L120.991953,131.104994 L122.982706,131.015269 L123.827533,130.518252 L125.291361,131.351317 L126.691677,131.620156 L128.97412,133.72315 L129.534314,134.279983 L128.297654,135.904779 L127.61077,137.739269 L127.968998,138.770267 L129.870363,139.513607 L132.528845,142.06825 L133.549425,142.9571 L133.960413,144.440083 L133.422735,145.310113 L132.799028,145.489227 L132.799028,146.506111 L133.123987,147.219543 L133.912694,148.075123 L136.11583,148.728738 L135.724333,151.8261 L137.282256,154.031589 L140.391379,153.769807 L142.38919,154.031589 L143.967275,153.329247 L143.967275,151.8261 L145.185116,152.421243 L145.185116,154.031589 L144.406155,157.610509 L143.483701,160.213879 L141.291318,161.509347 L140.939811,162.215386 L139.69139,162.716098 L139.034078,163.907391 L139.325768,165.031811 L139.120107,166.634428 L137.93251,168.243765 L137.480524,170.963409 L136.923691,171.759172 L138.058864,174.060435 L137.282256,177.339263 L135.989476,176.427563 L135.724333,175.43353 L133.44189,176.217532 L130.648316,178.234497 L128.583296,177.677664 L127.836595,178.248947 L127.69075,179.20467 L125.733602,180.933641 L123.827869,181.079486 L123.117798,179.869039 L121.060171,178.319181 L119.092269,177.108733 L117.258114,177.022705 L116.439499,176.757562 L113.821679,177.093275 L111.419938,176.970281 L110.093553,177.650108 L109.331059,178.180729 L107.582933,175.540058 L106.989134,176.246096 L105.15498,176.514935 L103.765418,175.260465 L102.581182,175.349854 L101.658728,176.04077 L100.149533,176.216188 L99.1662537,175.8052 L99.0204085,175.140832 L98.4336672,174.968775 L98.2878221,173.601728 L97.0441054,172.716575 L95.9865597,172.899386 L94.481061,171.378093 L94.1261934,170.25737 L92.7961122,169.580904 L90.9774159,169.554692 L89.4611636,168.867808 L88.8935772,167.611994 L90.4256238,166.259397 L92.5618861,164.828837 L94.9417839,162.215386 L95.5708673,159.207077 L92.3303485,157.610509 L90.7243712,154.71276 L89.2652994,152.880999 L87.8931598,151.8261 L87.8931598,150.226844 Z" id="path-1"></path>
    </defs>
    <g id="Page-1" stroke="none" stroke-width="1" fill="none" fill-rule="evenodd" sketch:type="MSPage">
        <g id="Artboard-1-Copy-15" sketch:type="MSArtboardGroup" transform="translate(-167.000000, -67.000000)">
            <g id="VERRIE" sketch:type="MSLayerGroup" transform="translate(163.000000, 67.000000)">
                <mask id="mask-2" sketch:name="Mask" fill="white">
                    <use xlink:href="#path-1"></use>
                </mask>
                <use id="Mask" fill="#272A32" sketch:type="MSShapeGroup" xlink:href="#path-1"></use>
            </g>
            <path d="M184.16,391.6 L170,391.6 L170,368.885 L173.835,368.885 L173.835,387.765 L184.16,387.765 L184.16,391.6 Z M206.890259,391.6 L202.701259,391.6 L201.019759,387.765 L192.110759,387.765 L190.429259,391.6 L186.240259,391.6 L196.565259,368 L206.890259,391.6 Z M199.338259,383.93 L196.565259,377.558 L193.792259,383.93 L199.338259,383.93 Z M241.730776,368.885 L231.405776,392.485 L221.080776,368.885 L225.269776,368.885 L231.405776,382.927 L237.541776,368.885 L241.730776,368.885 Z M260.773535,391.6 L246.613535,391.6 L246.613535,368.885 L260.773535,368.885 L260.773535,372.72 L250.448535,372.72 L250.448535,378.325 L259.593535,378.325 L259.593535,382.16 L250.448535,382.16 L250.448535,387.765 L260.773535,387.765 L260.773535,391.6 Z M281.733793,391.6 L277.308793,391.6 L272.588793,382.16 L269.845293,382.16 L269.845293,391.6 L266.010293,391.6 L266.010293,368.885 L274.948793,368.885 C275.853465,368.885 276.708956,369.057082 277.515293,369.40125 C278.321631,369.745418 279.029624,370.22233 279.639293,370.832 C280.248963,371.44167 280.725875,372.149663 281.070043,372.956 C281.414212,373.762337 281.586293,374.617829 281.586293,375.5225 C281.586293,376.269837 281.468295,376.987663 281.232293,377.676 C280.996292,378.364337 280.661962,378.988747 280.229293,379.54925 C279.796625,380.109753 279.28038,380.596498 278.680543,381.0095 C278.080707,381.422502 277.416964,381.727332 276.689293,381.924 L281.733793,391.6 Z M277.751293,375.5225 C277.751293,375.148831 277.677544,374.789918 277.530043,374.44575 C277.382543,374.101582 277.180961,373.801668 276.925293,373.546 C276.669625,373.290332 276.369712,373.088751 276.025543,372.94125 C275.681375,372.793749 275.322462,372.72 274.948793,372.72 L269.845293,372.72 L269.845293,378.325 L274.948793,378.325 C275.322462,378.325 275.681375,378.251251 276.025543,378.10375 C276.369712,377.956249 276.669625,377.754668 276.925293,377.499 C277.180961,377.243332 277.382543,376.948335 277.530043,376.614 C277.677544,376.279665 277.751293,375.915835 277.751293,375.5225 L277.751293,375.5225 Z M303.225052,391.6 L298.800052,391.6 L294.080052,382.16 L291.336552,382.16 L291.336552,391.6 L287.501552,391.6 L287.501552,368.885 L296.440052,368.885 C297.344723,368.885 298.200215,369.057082 299.006552,369.40125 C299.812889,369.745418 300.520882,370.22233 301.130552,370.832 C301.740222,371.44167 302.217134,372.149663 302.561302,372.956 C302.905471,373.762337 303.077552,374.617829 303.077552,375.5225 C303.077552,376.269837 302.959553,376.987663 302.723552,377.676 C302.487551,378.364337 302.153221,378.988747 301.720552,379.54925 C301.287883,380.109753 300.771638,380.596498 300.171802,381.0095 C299.571966,381.422502 298.908222,381.727332 298.180552,381.924 L303.225052,391.6 Z M299.242552,375.5225 C299.242552,375.148831 299.168803,374.789918 299.021302,374.44575 C298.873801,374.101582 298.67222,373.801668 298.416552,373.546 C298.160884,373.290332 297.860971,373.088751 297.516802,372.94125 C297.172634,372.793749 296.813721,372.72 296.440052,372.72 L291.336552,372.72 L291.336552,378.325 L296.440052,378.325 C296.813721,378.325 297.172634,378.251251 297.516802,378.10375 C297.860971,377.956249 298.160884,377.754668 298.416552,377.499 C298.67222,377.243332 298.873801,376.948335 299.021302,376.614 C299.168803,376.279665 299.242552,375.915835 299.242552,375.5225 L299.242552,375.5225 Z M312.827811,391.6 L308.992811,391.6 L308.992811,368.885 L312.827811,368.885 L312.827811,391.6 Z M333.64057,391.6 L319.48057,391.6 L319.48057,368.885 L333.64057,368.885 L333.64057,372.72 L323.31557,372.72 L323.31557,378.325 L332.46057,378.325 L332.46057,382.16 L323.31557,382.16 L323.31557,387.765 L333.64057,387.765 L333.64057,391.6 Z" id="LA-VERRIE" fill="#272A32" sketch:type="MSShapeGroup"></path>
            <path d="M176.8145,348.1605 C176.611499,347.880165 176.336002,347.650584 175.988,347.47175 C175.639998,347.292916 175.248502,347.2035 174.8135,347.2035 C174.581499,347.2035 174.347085,347.234916 174.11025,347.29775 C173.873415,347.360584 173.658334,347.462083 173.465,347.60225 C173.271666,347.742417 173.114584,347.916416 172.99375,348.12425 C172.872916,348.332084 172.8125,348.580999 172.8125,348.871 C172.8125,349.151335 172.868083,349.385749 172.97925,349.57425 C173.090417,349.762751 173.240249,349.922249 173.42875,350.05275 C173.617251,350.183251 173.839582,350.294416 174.09575,350.38625 C174.351918,350.478084 174.624999,350.572333 174.915,350.669 C175.263002,350.775334 175.615832,350.896166 175.9735,351.0315 C176.331168,351.166834 176.654999,351.345666 176.945,351.568 C177.235001,351.790334 177.471832,352.068248 177.6555,352.40175 C177.839168,352.735252 177.931,353.158164 177.931,353.6705 C177.931,354.202169 177.831918,354.663748 177.63375,355.05525 C177.435582,355.446752 177.172168,355.770582 176.8435,356.02675 C176.514832,356.282918 176.135419,356.473833 175.70525,356.5995 C175.275081,356.725167 174.832836,356.788 174.3785,356.788 C173.73083,356.788 173.10492,356.662335 172.50075,356.411 C171.89658,356.159665 171.396335,355.787502 171,355.2945 L172.1165,354.352 C172.358168,354.709668 172.681998,354.999666 173.088,355.222 C173.494002,355.444334 173.933831,355.5555 174.4075,355.5555 C174.649168,355.5555 174.890832,355.521667 175.1325,355.454 C175.374168,355.386333 175.594082,355.280001 175.79225,355.135 C175.990418,354.989999 176.152333,354.808751 176.278,354.59125 C176.403667,354.373749 176.4665,354.110335 176.4665,353.801 C176.4665,353.491665 176.401251,353.233084 176.27075,353.02525 C176.140249,352.817416 175.963834,352.641001 175.7415,352.496 C175.519166,352.350999 175.260585,352.227751 174.96575,352.12625 C174.670915,352.024749 174.359168,351.920834 174.0305,351.8145 C173.701832,351.717833 173.378002,351.599417 173.059,351.45925 C172.739998,351.319083 172.454835,351.140251 172.2035,350.92275 C171.952165,350.705249 171.749167,350.437002 171.5945,350.118 C171.439833,349.798998 171.3625,349.402669 171.3625,348.929 C171.3625,348.416664 171.466416,347.976835 171.67425,347.6095 C171.882084,347.242165 172.152748,346.937668 172.48625,346.696 C172.819752,346.454332 173.196748,346.277917 173.61725,346.16675 C174.037752,346.055583 174.460665,346 174.886,346 C175.485336,346 176.045997,346.106332 176.568,346.319 C177.090003,346.531668 177.510498,346.816832 177.8295,347.1745 L176.8145,348.1605 Z M182.054577,356.527 L180.459577,356.527 L184.911077,346.261 L186.216077,346.261 L190.624077,356.527 L189.000077,356.527 L187.956077,354.004 L183.084077,354.004 L182.054577,356.527 Z M183.591577,352.7425 L187.434077,352.7425 L185.520077,347.9285 L183.591577,352.7425 Z M193.616654,346.261 L196.748654,346.261 C197.299656,346.261 197.802318,346.316583 198.256654,346.42775 C198.710989,346.538917 199.097652,346.710499 199.416654,346.9425 C199.735655,347.174501 199.982153,347.469332 200.156154,347.827 C200.330155,348.184668 200.417154,348.614831 200.417154,349.1175 C200.417154,349.629836 200.322905,350.069665 200.134404,350.437 C199.945903,350.804335 199.684905,351.103999 199.351404,351.336 C199.017902,351.568001 198.621573,351.739583 198.162404,351.85075 C197.703235,351.961917 197.207823,352.0175 196.676154,352.0175 L195.052154,352.0175 L195.052154,356.527 L193.616654,356.527 L193.616654,346.261 Z M195.052154,350.7995 L196.574654,350.7995 C196.922655,350.7995 197.244069,350.768084 197.538904,350.70525 C197.833739,350.642416 198.087486,350.545751 198.300154,350.41525 C198.512821,350.284749 198.677153,350.113168 198.793154,349.9005 C198.909154,349.687832 198.967154,349.426835 198.967154,349.1175 C198.967154,348.808165 198.906738,348.549584 198.785904,348.34175 C198.66507,348.133916 198.500738,347.964751 198.292904,347.83425 C198.085069,347.703749 197.836155,347.611917 197.546154,347.55875 C197.256152,347.505583 196.941989,347.479 196.603654,347.479 L195.052154,347.479 L195.052154,350.7995 Z M205.352731,355.251 L210.717731,355.251 L210.717731,356.527 L203.917231,356.527 L203.917231,346.261 L210.500231,346.261 L210.500231,347.5225 L205.352731,347.5225 L205.352731,350.5965 L210.195731,350.5965 L210.195731,351.829 L205.352731,351.829 L205.352731,355.251 Z M218.219807,356.788 C217.543137,356.788 216.953477,356.674418 216.450807,356.44725 C215.948138,356.220082 215.532476,355.918002 215.203807,355.541 C214.875139,355.163998 214.631058,354.731419 214.471557,354.24325 C214.312057,353.755081 214.232307,353.250003 214.232307,352.728 L214.232307,346.261 L215.667807,346.261 L215.667807,352.641 C215.667807,352.989002 215.711307,353.334582 215.798307,353.67775 C215.885308,354.020918 216.02789,354.327832 216.226057,354.5985 C216.424225,354.869168 216.685223,355.086666 217.009057,355.251 C217.332892,355.415334 217.736472,355.4975 218.219807,355.4975 C218.693477,355.4975 219.094639,355.415334 219.423307,355.251 C219.751976,355.086666 220.01539,354.869168 220.213557,354.5985 C220.411725,354.327832 220.554307,354.020918 220.641307,353.67775 C220.728308,353.334582 220.771807,352.989002 220.771807,352.641 L220.771807,346.261 L222.207307,346.261 L222.207307,352.728 C222.207307,353.250003 222.127558,353.755081 221.968057,354.24325 C221.808557,354.731419 221.564476,355.163998 221.235807,355.541 C220.907139,355.918002 220.491477,356.220082 219.988807,356.44725 C219.486138,356.674418 218.896478,356.788 218.219807,356.788 L218.219807,356.788 Z M227.737384,356.527 L226.301884,356.527 L226.301884,346.261 L229.593384,346.261 C230.086387,346.261 230.555215,346.311749 230.999884,346.41325 C231.444553,346.514751 231.833633,346.676666 232.167134,346.899 C232.500636,347.121334 232.76405,347.413748 232.957384,347.77625 C233.150719,348.138752 233.247384,348.580997 233.247384,349.103 C233.247384,349.857004 233.015387,350.465998 232.551384,350.93 C232.087382,351.394002 231.488055,351.688833 230.753384,351.8145 L233.624384,356.527 L231.884384,356.527 L229.274384,351.9595 L227.737384,351.9595 L227.737384,356.527 Z M227.737384,350.756 L229.390384,350.756 C229.728719,350.756 230.042883,350.727 230.332884,350.669 C230.622886,350.611 230.876633,350.516751 231.094134,350.38625 C231.311635,350.255749 231.483217,350.086584 231.608884,349.87875 C231.734552,349.670916 231.797384,349.412335 231.797384,349.103 C231.797384,348.793665 231.734552,348.535084 231.608884,348.32725 C231.483217,348.119416 231.316469,347.952667 231.108634,347.827 C230.9008,347.701333 230.656719,347.611917 230.376384,347.55875 C230.09605,347.505583 229.801219,347.479 229.491884,347.479 L227.737384,347.479 L227.737384,350.756 Z M241.981961,348.1605 C241.77896,347.880165 241.503463,347.650584 241.155461,347.47175 C240.807459,347.292916 240.415963,347.2035 239.980961,347.2035 C239.74896,347.2035 239.514546,347.234916 239.277711,347.29775 C239.040877,347.360584 238.825796,347.462083 238.632461,347.60225 C238.439127,347.742417 238.282045,347.916416 238.161211,348.12425 C238.040377,348.332084 237.979961,348.580999 237.979961,348.871 C237.979961,349.151335 238.035544,349.385749 238.146711,349.57425 C238.257878,349.762751 238.40771,349.922249 238.596211,350.05275 C238.784712,350.183251 239.007043,350.294416 239.263211,350.38625 C239.519379,350.478084 239.79246,350.572333 240.082461,350.669 C240.430463,350.775334 240.783293,350.896166 241.140961,351.0315 C241.49863,351.166834 241.82246,351.345666 242.112461,351.568 C242.402463,351.790334 242.639294,352.068248 242.822961,352.40175 C243.006629,352.735252 243.098461,353.158164 243.098461,353.6705 C243.098461,354.202169 242.999379,354.663748 242.801211,355.05525 C242.603044,355.446752 242.33963,355.770582 242.010961,356.02675 C241.682293,356.282918 241.30288,356.473833 240.872711,356.5995 C240.442542,356.725167 240.000297,356.788 239.545961,356.788 C238.898291,356.788 238.272381,356.662335 237.668211,356.411 C237.064042,356.159665 236.563797,355.787502 236.167461,355.2945 L237.283961,354.352 C237.525629,354.709668 237.849459,354.999666 238.255461,355.222 C238.661463,355.444334 239.101292,355.5555 239.574961,355.5555 C239.816629,355.5555 240.058293,355.521667 240.299961,355.454 C240.541629,355.386333 240.761544,355.280001 240.959711,355.135 C241.157879,354.989999 241.319794,354.808751 241.445461,354.59125 C241.571129,354.373749 241.633961,354.110335 241.633961,353.801 C241.633961,353.491665 241.568712,353.233084 241.438211,353.02525 C241.307711,352.817416 241.131296,352.641001 240.908961,352.496 C240.686627,352.350999 240.428046,352.227751 240.133211,352.12625 C239.838376,352.024749 239.52663,351.920834 239.197961,351.8145 C238.869293,351.717833 238.545463,351.599417 238.226461,351.45925 C237.90746,351.319083 237.622296,351.140251 237.370961,350.92275 C237.119627,350.705249 236.916629,350.437002 236.761961,350.118 C236.607294,349.798998 236.529961,349.402669 236.529961,348.929 C236.529961,348.416664 236.633877,347.976835 236.841711,347.6095 C237.049546,347.242165 237.32021,346.937668 237.653711,346.696 C237.987213,346.454332 238.364209,346.277917 238.784711,346.16675 C239.205213,346.055583 239.628126,346 240.053461,346 C240.652798,346 241.213459,346.106332 241.735461,346.319 C242.257464,346.531668 242.67796,346.816832 242.996961,347.1745 L241.981961,348.1605 Z M252.099615,346.261 L255.231615,346.261 C255.782618,346.261 256.285279,346.316583 256.739615,346.42775 C257.193951,346.538917 257.580613,346.710499 257.899615,346.9425 C258.218617,347.174501 258.465114,347.469332 258.639115,347.827 C258.813116,348.184668 258.900115,348.614831 258.900115,349.1175 C258.900115,349.629836 258.805866,350.069665 258.617365,350.437 C258.428864,350.804335 258.167867,351.103999 257.834365,351.336 C257.500863,351.568001 257.104534,351.739583 256.645365,351.85075 C256.186196,351.961917 255.690784,352.0175 255.159115,352.0175 L253.535115,352.0175 L253.535115,356.527 L252.099615,356.527 L252.099615,346.261 Z M253.535115,350.7995 L255.057615,350.7995 C255.405617,350.7995 255.72703,350.768084 256.021865,350.70525 C256.3167,350.642416 256.570447,350.545751 256.783115,350.41525 C256.995783,350.284749 257.160114,350.113168 257.276115,349.9005 C257.392116,349.687832 257.450115,349.426835 257.450115,349.1175 C257.450115,348.808165 257.389699,348.549584 257.268865,348.34175 C257.148031,348.133916 256.983699,347.964751 256.775865,347.83425 C256.568031,347.703749 256.319116,347.611917 256.029115,347.55875 C255.739113,347.505583 255.42495,347.479 255.086615,347.479 L253.535115,347.479 L253.535115,350.7995 Z M272.753192,351.3795 C272.753192,352.172171 272.615443,352.89958 272.339942,353.56175 C272.06444,354.22392 271.685028,354.794248 271.201692,355.27275 C270.718356,355.751252 270.143195,356.123415 269.476192,356.38925 C268.809188,356.655085 268.084196,356.788 267.301192,356.788 C266.518188,356.788 265.795612,356.655085 265.133442,356.38925 C264.471272,356.123415 263.898528,355.751252 263.415192,355.27275 C262.931856,354.794248 262.55486,354.22392 262.284192,353.56175 C262.013524,352.89958 261.878192,352.172171 261.878192,351.3795 C261.878192,350.577163 262.013524,349.84492 262.284192,349.18275 C262.55486,348.52058 262.931856,347.955086 263.415192,347.48625 C263.898528,347.017414 264.471272,346.652501 265.133442,346.3915 C265.795612,346.130499 266.518188,346 267.301192,346 C268.084196,346 268.809188,346.130499 269.476192,346.3915 C270.143195,346.652501 270.718356,347.017414 271.201692,347.48625 C271.685028,347.955086 272.06444,348.52058 272.339942,349.18275 C272.615443,349.84492 272.753192,350.577163 272.753192,351.3795 L272.753192,351.3795 Z M271.201692,351.3795 C271.201692,350.818831 271.109859,350.289586 270.926192,349.79175 C270.742524,349.293914 270.481527,348.856502 270.143192,348.4795 C269.804857,348.102498 269.396444,347.805251 268.917942,347.58775 C268.439439,347.370249 267.900528,347.2615 267.301192,347.2615 C266.711522,347.2615 266.177444,347.370249 265.698942,347.58775 C265.220439,347.805251 264.814443,348.102498 264.480942,348.4795 C264.14744,348.856502 263.888859,349.293914 263.705192,349.79175 C263.521524,350.289586 263.429692,350.818831 263.429692,351.3795 C263.429692,351.949836 263.521524,352.486331 263.705192,352.989 C263.888859,353.491669 264.149857,353.929081 264.488192,354.30125 C264.826527,354.673419 265.232523,354.965832 265.706192,355.1785 C266.179861,355.391168 266.711522,355.4975 267.301192,355.4975 C267.890861,355.4975 268.427356,355.391168 268.910692,355.1785 C269.394028,354.965832 269.804857,354.673419 270.143192,354.30125 C270.481527,353.929081 270.742524,353.491669 270.926192,352.989 C271.109859,352.486331 271.201692,351.949836 271.201692,351.3795 L271.201692,351.3795 Z M281.690769,354.149 L281.719769,354.149 L284.750269,346.261 L286.983269,346.261 L286.983269,356.527 L285.547769,356.527 L285.547769,347.943 L285.518769,347.943 L282.111269,356.527 L281.197769,356.527 L277.804769,347.943 L277.775769,347.943 L277.775769,356.527 L276.383769,356.527 L276.383769,346.261 L278.616769,346.261 L281.690769,354.149 Z M291.150346,346.261 L294.282346,346.261 C294.833348,346.261 295.33601,346.316583 295.790346,346.42775 C296.244681,346.538917 296.631344,346.710499 296.950346,346.9425 C297.269347,347.174501 297.515845,347.469332 297.689846,347.827 C297.863846,348.184668 297.950846,348.614831 297.950846,349.1175 C297.950846,349.629836 297.856596,350.069665 297.668096,350.437 C297.479595,350.804335 297.218597,351.103999 296.885096,351.336 C296.551594,351.568001 296.155265,351.739583 295.696096,351.85075 C295.236927,351.961917 294.741515,352.0175 294.209846,352.0175 L292.585846,352.0175 L292.585846,356.527 L291.150346,356.527 L291.150346,346.261 Z M292.585846,350.7995 L294.108346,350.7995 C294.456347,350.7995 294.777761,350.768084 295.072596,350.70525 C295.36743,350.642416 295.621178,350.545751 295.833846,350.41525 C296.046513,350.284749 296.210845,350.113168 296.326846,349.9005 C296.442846,349.687832 296.500846,349.426835 296.500846,349.1175 C296.500846,348.808165 296.440429,348.549584 296.319596,348.34175 C296.198762,348.133916 296.03443,347.964751 295.826596,347.83425 C295.618761,347.703749 295.369847,347.611917 295.079846,347.55875 C294.789844,347.505583 294.475681,347.479 294.137346,347.479 L292.585846,347.479 L292.585846,350.7995 Z M302.886422,356.527 L301.450922,356.527 L301.450922,346.261 L302.886422,346.261 L302.886422,356.527 Z M308.488999,355.251 L313.853999,355.251 L313.853999,356.527 L307.053499,356.527 L307.053499,346.261 L313.636499,346.261 L313.636499,347.5225 L308.488999,347.5225 L308.488999,350.5965 L313.331999,350.5965 L313.331999,351.829 L308.488999,351.829 L308.488999,355.251 Z M318.876576,356.527 L317.441076,356.527 L317.441076,346.261 L320.732576,346.261 C321.225579,346.261 321.694407,346.311749 322.139076,346.41325 C322.583745,346.514751 322.972824,346.676666 323.306326,346.899 C323.639828,347.121334 323.903242,347.413748 324.096576,347.77625 C324.28991,348.138752 324.386576,348.580997 324.386576,349.103 C324.386576,349.857004 324.154578,350.465998 323.690576,350.93 C323.226574,351.394002 322.627246,351.688833 321.892576,351.8145 L324.763576,356.527 L323.023576,356.527 L320.413576,351.9595 L318.876576,351.9595 L318.876576,356.527 Z M318.876576,350.756 L320.529576,350.756 C320.867911,350.756 321.182075,350.727 321.472076,350.669 C321.762078,350.611 322.015825,350.516751 322.233326,350.38625 C322.450827,350.255749 322.622409,350.086584 322.748076,349.87875 C322.873743,349.670916 322.936576,349.412335 322.936576,349.103 C322.936576,348.793665 322.873743,348.535084 322.748076,348.32725 C322.622409,348.119416 322.455661,347.952667 322.247826,347.827 C322.039992,347.701333 321.795911,347.611917 321.515576,347.55875 C321.235241,347.505583 320.940411,347.479 320.631076,347.479 L318.876576,347.479 L318.876576,350.756 Z M333.121153,348.1605 C332.918152,347.880165 332.642655,347.650584 332.294653,347.47175 C331.946651,347.292916 331.555155,347.2035 331.120153,347.2035 C330.888152,347.2035 330.653738,347.234916 330.416903,347.29775 C330.180069,347.360584 329.964987,347.462083 329.771653,347.60225 C329.578319,347.742417 329.421237,347.916416 329.300403,348.12425 C329.179569,348.332084 329.119153,348.580999 329.119153,348.871 C329.119153,349.151335 329.174736,349.385749 329.285903,349.57425 C329.39707,349.762751 329.546902,349.922249 329.735403,350.05275 C329.923904,350.183251 330.146235,350.294416 330.402403,350.38625 C330.658571,350.478084 330.931652,350.572333 331.221653,350.669 C331.569655,350.775334 331.922485,350.896166 332.280153,351.0315 C332.637821,351.166834 332.961652,351.345666 333.251653,351.568 C333.541654,351.790334 333.778485,352.068248 333.962153,352.40175 C334.145821,352.735252 334.237653,353.158164 334.237653,353.6705 C334.237653,354.202169 334.138571,354.663748 333.940403,355.05525 C333.742235,355.446752 333.478821,355.770582 333.150153,356.02675 C332.821485,356.282918 332.442072,356.473833 332.011903,356.5995 C331.581734,356.725167 331.139489,356.788 330.685153,356.788 C330.037483,356.788 329.411573,356.662335 328.807403,356.411 C328.203233,356.159665 327.702988,355.787502 327.306653,355.2945 L328.423153,354.352 C328.664821,354.709668 328.988651,354.999666 329.394653,355.222 C329.800655,355.444334 330.240484,355.5555 330.714153,355.5555 C330.955821,355.5555 331.197485,355.521667 331.439153,355.454 C331.680821,355.386333 331.900735,355.280001 332.098903,355.135 C332.297071,354.989999 332.458986,354.808751 332.584653,354.59125 C332.71032,354.373749 332.773153,354.110335 332.773153,353.801 C332.773153,353.491665 332.707904,353.233084 332.577403,353.02525 C332.446902,352.817416 332.270487,352.641001 332.048153,352.496 C331.825819,352.350999 331.567238,352.227751 331.272403,352.12625 C330.977568,352.024749 330.665821,351.920834 330.337153,351.8145 C330.008485,351.717833 329.684655,351.599417 329.365653,351.45925 C329.046651,351.319083 328.761488,351.140251 328.510153,350.92275 C328.258818,350.705249 328.05582,350.437002 327.901153,350.118 C327.746486,349.798998 327.669153,349.402669 327.669153,348.929 C327.669153,348.416664 327.773069,347.976835 327.980903,347.6095 C328.188737,347.242165 328.459401,346.937668 328.792903,346.696 C329.126405,346.454332 329.503401,346.277917 329.923903,346.16675 C330.344405,346.055583 330.767318,346 331.192653,346 C331.791989,346 332.35265,346.106332 332.874653,346.319 C333.396656,346.531668 333.817151,346.816832 334.136153,347.1745 L333.121153,348.1605 Z" id="SAPEURS-POMPIERS" fill="#272A32" sketch:type="MSShapeGroup"></path>
        </g>
    </g>
</svg>