<?xml version="1.0" encoding="UTF-8" standalone="no"?>
<svg width="177px" height="264px" viewBox="0 0 177 264" version="1.1" xmlns="http://www.w3.org/2000/svg" xmlns:xlink="http://www.w3.org/1999/xlink" xmlns:sketch="http://www.bohemiancoding.com/sketch/ns">
    <!-- Generator: Sketch 3.5.1 (25234) - http://www.bohemiancoding.com/sketch -->
    <title>logo-splv</title>
    <desc>Created with Sketch.</desc>
    <defs>
        <path d="M143.808673,116.26309 C143.107574,113.225807 142.705016,110.582502 142.702232,108.80592 C142.678869,93.8980139 148.817186,73.9303603 133.050586,64.0878569 C137.430048,77.4448027 129.860855,92.5694578 123.912194,99.0425489 C137.86085,69.0878569 113.912943,33.8729644 109.154019,22.2214004 C104.395094,10.5698364 109.649933,1.93158199 110.343752,0.212890625 C100.037111,9.42773438 103.803895,20.8349923 102.64844,34.3867187 C101.180953,51.598091 97.1990025,59.7451426 92.6885818,59.7451426 C81.9810022,59.7451426 80.780022,45.0935786 80.7800207,32.2640439 C67.0836915,50.2720515 69.4631536,67.1020884 69.4631536,83.9321253 C69.4631536,86.5303806 69.260639,95.1519819 66.0673107,104.434331 C69.726222,104.812812 73.1805552,105.5463 76.3883436,106.603311 L117.102581,106.603312 C128.504707,106.603312 137.377795,110.193794 143.808673,116.26309 Z M156.024866,141.845377 C156.146255,141.913759 156.26754,141.975743 156.388676,142.031113 C156.205793,141.650496 156.034057,141.262091 155.873133,140.866617 C155.443211,138.2369 154.847841,135.703037 154.085405,133.285728 C152.762196,120.004126 159.00124,104.311016 164.350474,104.311017 C160.414395,111.988731 158.108847,120.389395 162.793857,127.52415 C166.177204,132.676614 175.79102,160.056641 167.263676,183 C177.967945,168.754593 174.77822,163.274246 173.967945,151.951172 C189.640629,179 175.013676,205.433517 163.350468,219.78125 C148.178992,238.444749 152.115399,242.622955 138.702229,254.041016 C129.398472,261.960907 115.886422,263.424211 101.12274,263.578061 L101.12274,200.704875 C102.923286,200.704875 114.401763,200.929998 116.202309,200.929998 C137.358718,200.929998 156.714581,184.27087 156.714581,151.627983 C156.714581,148.259211 156.485571,144.986887 156.024866,141.845377 Z M71.5714286,176.825832 L55.4610455,158.391036 C48.9340682,150.961965 47.5836591,145.784128 47.5836591,139.030427 C47.5836591,131.826479 52.9852955,126.648642 60.1874773,126.648642 C65.0864959,126.648642 69.5115765,129.848508 71.5714297,135.818296 L71.5714286,176.825832 Z M51.3769701,104.787337 C46.0576744,86.7121378 35.796179,76.0288849 27.253373,77.45903 C36.0122975,84.5213575 40.1555121,98.4827248 33.2020286,108.824486 C32.1807774,110.34337 31.176272,112.073163 30.2038103,113.981088 C35.6853268,109.25618 42.930303,106.079215 51.3769701,104.787337 Z M19.9629843,151.541649 C18.5285015,166.362461 19.9756816,181.596118 26.4140627,192.722656 C15.5312502,188.033203 10.95815,180.583992 10.4599431,168.754595 C1.86580339,183.246544 4.24526553,201.915107 5.43499659,210.433521 C8.53043367,232.596692 16.9655994,245.594568 27.416368,253.184287 C22.2675023,247.433499 19.2250682,239.852324 19.2250682,230.655633 L19.2250682,214.221628 L47.5836591,214.221628 L47.5836591,228.854646 C47.5836591,238.53495 52.9852955,243.262541 60.1874773,243.262541 C67.164591,243.262541 72.7912955,238.084704 72.7912955,228.854646 C72.7912955,220.525082 69.4152728,214.221628 63.5635001,207.467927 L40.1564091,183.379728 C28.6108388,169.731618 22.2319585,163.699444 19.9629843,151.541649 Z M87.8931598,150.226844 L86.779494,149.042944 L86.0768159,148.777465 L85.69204,147.291121 L84.5642602,146.87274 L83.8353703,145.673382 L83.1851158,144.824859 L84.3730484,144.496203 L85.6134046,143.050521 L86.7411844,142.990704 L88.2419785,141.440847 L88.6496057,141.758749 L91.6404403,139.372467 L92.5329859,138.1143 L93.2763259,137.546713 L93.6611018,136.444809 L94.9417839,137.752039 L96.4916411,137.875369 L96.9852968,137.378353 L97.7249403,135.71592 L99.0738403,135.543863 L99.1598688,134.583435 L100.191203,132.536562 L100.632099,131.146664 L101.525652,131.001154 L102.836579,131.524383 L104.629063,131.614108 L104.950326,132.167244 L104.333676,133.049036 L103.795998,135.046846 L104.38274,135.962243 L108.088014,136.526133 L108.924776,134.647956 L109.518574,134.236633 L109.432545,133.534291 L108.359541,132.981154 L107.518411,131.82313 L107.839674,130.952091 L108.201598,129.756094 L107.476405,129.401226 L106.48943,129.307804 L105.999807,128.646124 L106.496823,127.136929 L108.046344,127.226318 L109.857983,126.920514 L110.388604,127.241776 L111.277453,127.978059 L112.965763,127.843976 L114.605345,129.124994 L115.613827,128.852794 L118.358674,131.818425 L119.064713,132.176989 L120.991953,131.104994 L122.982706,131.015269 L123.827533,130.518252 L125.291361,131.351317 L126.691677,131.620156 L128.97412,133.72315 L129.534314,134.279983 L128.297654,135.904779 L127.61077,137.739269 L127.968998,138.770267 L129.870363,139.513607 L132.528845,142.06825 L133.549425,142.9571 L133.960413,144.440083 L133.422735,145.310113 L132.799028,145.489227 L132.799028,146.506111 L133.123987,147.219543 L133.912694,148.075123 L136.11583,148.728738 L135.724333,151.8261 L137.282256,154.031589 L140.391379,153.769807 L142.38919,154.031589 L143.967275,153.329247 L143.967275,151.8261 L145.185116,152.421243 L145.185116,154.031589 L144.406155,157.610509 L143.483701,160.213879 L141.291318,161.509347 L140.939811,162.215386 L139.69139,162.716098 L139.034078,163.907391 L139.325768,165.031811 L139.120107,166.634428 L137.93251,168.243765 L137.480524,170.963409 L136.923691,171.759172 L138.058864,174.060435 L137.282256,177.339263 L135.989476,176.427563 L135.724333,175.43353 L133.44189,176.217532 L130.648316,178.234497 L128.583296,177.677664 L127.836595,178.248947 L127.69075,179.20467 L125.733602,180.933641 L123.827869,181.079486 L123.117798,179.869039 L121.060171,178.319181 L119.092269,177.108733 L117.258114,177.022705 L116.439499,176.757562 L113.821679,177.093275 L111.419938,176.970281 L110.093553,177.650108 L109.331059,178.180729 L107.582933,175.540058 L106.989134,176.246096 L105.15498,176.514935 L103.765418,175.260465 L102.581182,175.349854 L101.658728,176.04077 L100.149533,176.216188 L99.1662537,175.8052 L99.0204085,175.140832 L98.4336672,174.968775 L98.2878221,173.601728 L97.0441054,172.716575 L95.9865597,172.899386 L94.481061,171.378093 L94.1261934,170.25737 L92.7961122,169.580904 L90.9774159,169.554692 L89.4611636,168.867808 L88.8935772,167.611994 L90.4256238,166.259397 L92.5618861,164.828837 L94.9417839,162.215386 L95.5708673,159.207077 L92.3303485,157.610509 L90.7243712,154.71276 L89.2652994,152.880999 L87.8931598,151.8261 L87.8931598,150.226844 Z" id="path-1"></path>
    </defs>
    <g id="Page-1" stroke="none" stroke-width="1" fill="none" fill-rule="evenodd" sketch:type="MSPage">
        <g id="Artboard-1-Copy-15" sketch:type="MSArtboardGroup" transform="translate(-167.000000, -67.000000)">
            <g id="VERRIE" sketch:type="MSLayerGroup" transform="translate(163.000000, 67.000000)">
                <mask id="mask-2" sketch:name="Mask" fill="white">
                    <use xlink:href="#path-1"></use>
                </mask>
                <use id="Mask" fill="#272A32" sketch:type="MSShapeGroup" xlink:href="#path-1"></use>
            </g>
        </g>
    </g>
</svg>