<svg id="svg" version="1.1" xmlns="http://www.w3.org/2000/svg" xmlns:xlink="http://www.w3.org/1999/xlink" width="400" height="138.58267716535434" viewBox="0, 0, 400,138.58267716535434"><g id="svgg"><path id="path0" d="M93.500 0.388 C 93.500 0.601,93.319 0.946,93.097 1.154 C 92.875 1.362,92.598 1.769,92.482 2.058 C 92.366 2.347,92.060 2.844,91.802 3.163 C 91.544 3.482,91.333 3.932,91.333 4.163 C 91.332 4.394,91.171 4.846,90.974 5.167 C 90.055 6.662,89.528 9.815,90.123 10.266 C 90.683 10.691,92.165 10.552,92.983 9.997 C 93.387 9.724,93.792 9.500,93.884 9.500 C 93.976 9.500,94.284 9.327,94.568 9.115 C 94.851 8.903,95.318 8.635,95.605 8.519 C 95.893 8.404,96.338 8.090,96.595 7.821 C 96.852 7.553,97.143 7.333,97.241 7.333 C 97.463 7.333,98.833 6.019,98.833 5.806 C 98.833 5.721,99.009 5.486,99.223 5.284 C 100.392 4.182,100.115 1.333,98.839 1.333 C 98.141 1.333,96.564 2.143,96.351 2.611 C 96.234 2.869,96.032 3.000,95.754 3.000 C 95.265 3.000,95.245 3.138,95.533 4.528 C 95.745 5.556,95.447 6.670,94.961 6.664 C 94.440 6.659,94.002 6.437,93.905 6.130 C 93.800 5.800,94.906 3.148,95.198 3.028 C 95.273 2.997,95.333 2.872,95.333 2.750 C 95.333 2.628,95.424 2.498,95.535 2.461 C 95.658 2.420,95.762 1.930,95.803 1.197 L 95.871 0.000 94.685 0.000 C 93.556 0.000,93.500 0.018,93.500 0.388 M46.833 6.424 C 45.962 6.540,44.725 6.719,44.083 6.822 C 43.442 6.926,41.904 7.169,40.667 7.363 C 39.429 7.556,38.138 7.854,37.798 8.024 C 37.458 8.194,36.953 8.333,36.675 8.333 C 36.397 8.333,35.776 8.488,35.293 8.676 C 34.811 8.864,33.929 9.155,33.333 9.322 C 31.690 9.782,29.699 10.493,28.566 11.023 C 28.007 11.286,27.490 11.500,27.417 11.500 C 27.261 11.500,25.028 12.524,24.111 13.017 C 23.759 13.205,23.103 13.469,22.652 13.603 C 22.202 13.737,21.833 13.918,21.833 14.006 C 21.833 14.094,20.952 14.586,19.875 15.099 C 18.798 15.613,17.868 16.112,17.809 16.207 C 17.700 16.382,16.386 17.154,15.000 17.856 C 14.588 18.065,14.149 18.335,14.026 18.455 C 13.903 18.576,13.565 18.796,13.276 18.944 C 12.987 19.092,12.525 19.392,12.250 19.609 C 11.552 20.161,11.532 20.177,10.437 21.007 C 9.898 21.416,9.298 21.863,9.104 22.000 C 8.909 22.137,8.586 22.400,8.385 22.583 C 8.184 22.767,7.675 23.217,7.254 23.583 C 6.295 24.419,5.419 25.298,4.667 26.179 C 4.346 26.555,3.971 26.977,3.833 27.117 C 3.007 27.958,1.000 31.355,1.000 31.913 C 1.000 32.384,0.607 33.000,0.307 33.000 C 0.018 33.000,0.000 33.223,0.000 36.833 C 0.000 40.462,0.017 40.667,0.311 40.667 C 0.543 40.667,0.696 40.908,0.919 41.625 C 1.083 42.152,1.393 42.795,1.609 43.054 C 1.824 43.314,2.000 43.576,2.000 43.639 C 2.000 43.743,3.022 44.796,4.000 45.699 C 4.634 46.284,6.224 47.333,6.477 47.333 C 6.601 47.333,6.915 47.513,7.175 47.732 C 7.436 47.951,8.084 48.258,8.616 48.413 C 9.148 48.569,9.771 48.773,10.000 48.867 C 10.794 49.190,11.919 49.496,12.317 49.498 C 12.538 49.499,13.131 49.696,13.636 49.935 C 14.283 50.240,15.003 50.410,16.069 50.508 C 16.902 50.584,17.846 50.731,18.167 50.835 C 18.760 51.026,21.073 51.396,23.333 51.661 C 24.021 51.742,25.333 52.001,26.250 52.236 C 27.167 52.471,28.236 52.664,28.627 52.665 C 29.018 52.666,30.031 52.848,30.877 53.070 C 31.724 53.292,33.129 53.557,34.000 53.660 C 34.871 53.763,35.808 53.914,36.083 53.997 C 36.358 54.081,37.408 54.307,38.417 54.501 C 39.425 54.695,40.850 55.030,41.583 55.247 C 42.317 55.463,43.254 55.673,43.667 55.713 C 44.079 55.752,44.754 55.936,45.167 56.120 C 45.579 56.304,46.517 56.587,47.250 56.748 C 47.983 56.909,49.046 57.220,49.612 57.437 C 50.177 57.655,50.771 57.833,50.930 57.833 C 51.090 57.833,51.549 58.026,51.950 58.261 C 52.351 58.496,53.108 58.797,53.631 58.930 C 54.155 59.063,55.005 59.358,55.521 59.586 C 56.036 59.814,56.570 60.000,56.707 60.000 C 56.843 60.000,57.149 60.153,57.386 60.339 C 57.624 60.526,58.065 60.763,58.367 60.866 C 60.884 61.725,63.505 64.494,63.983 66.800 C 64.494 69.261,63.538 73.963,62.442 74.384 C 62.310 74.434,62.032 74.817,61.824 75.233 C 61.178 76.527,58.731 78.788,57.041 79.652 C 56.609 79.874,56.163 80.147,56.051 80.259 C 55.728 80.582,53.482 81.766,52.750 82.000 C 52.383 82.117,51.896 82.339,51.667 82.493 C 51.438 82.647,50.913 82.868,50.500 82.984 C 50.087 83.100,49.592 83.296,49.398 83.420 C 49.204 83.543,48.642 83.758,48.148 83.896 C 47.654 84.035,46.688 84.305,46.000 84.498 C 45.313 84.690,44.038 84.915,43.167 84.999 C 41.326 85.175,39.288 85.429,38.036 85.638 C 37.368 85.750,36.504 85.691,34.453 85.396 C 32.966 85.182,31.417 85.006,31.010 85.004 C 30.151 84.999,28.706 84.743,27.167 84.322 C 26.571 84.159,25.636 83.937,25.090 83.827 C 24.544 83.718,23.944 83.528,23.757 83.406 C 23.570 83.284,23.004 83.075,22.500 82.941 C 21.996 82.808,21.171 82.505,20.667 82.268 C 20.162 82.031,19.653 81.836,19.533 81.835 C 19.296 81.833,18.300 81.353,18.167 81.176 C 18.121 81.116,17.805 80.937,17.465 80.779 C 17.126 80.620,16.807 80.425,16.757 80.345 C 16.707 80.264,16.256 79.967,15.755 79.684 C 12.913 78.080,10.047 73.493,10.575 71.391 C 11.164 69.046,7.814 70.863,7.078 73.288 C 6.669 74.638,6.966 76.786,7.680 77.635 C 7.810 77.790,8.049 78.121,8.210 78.371 C 8.603 78.981,11.420 81.424,12.105 81.749 C 12.405 81.891,12.860 82.183,13.117 82.397 C 13.373 82.611,13.958 82.970,14.417 83.195 C 14.875 83.419,15.850 83.916,16.583 84.298 C 18.424 85.256,19.953 85.931,20.790 86.156 C 21.178 86.260,21.853 86.521,22.290 86.736 C 22.726 86.951,23.383 87.179,23.750 87.242 C 24.117 87.306,24.654 87.496,24.943 87.664 C 25.475 87.974,26.402 88.142,29.750 88.535 C 32.025 88.802,38.623 88.808,40.417 88.545 C 41.150 88.437,42.462 88.262,43.333 88.156 C 44.204 88.050,45.210 87.822,45.568 87.650 C 45.927 87.478,46.602 87.290,47.068 87.231 C 47.535 87.173,48.179 86.988,48.500 86.820 C 48.821 86.652,49.646 86.355,50.333 86.159 C 51.021 85.964,51.733 85.710,51.917 85.594 C 52.100 85.479,52.645 85.254,53.127 85.095 C 53.610 84.935,54.101 84.718,54.218 84.611 C 54.336 84.504,55.163 84.042,56.057 83.583 C 56.951 83.125,57.803 82.619,57.950 82.458 C 58.098 82.298,58.283 82.167,58.362 82.167 C 58.578 82.167,59.880 81.278,61.687 79.898 C 63.388 78.599,67.333 74.363,67.333 73.836 C 67.333 73.743,67.515 73.311,67.737 72.875 C 69.415 69.581,69.986 64.682,68.927 62.657 C 68.692 62.207,68.500 61.765,68.500 61.673 C 68.500 61.581,68.254 61.111,67.953 60.628 C 67.653 60.145,67.302 59.544,67.175 59.292 C 67.048 59.040,66.882 58.833,66.806 58.833 C 66.730 58.833,66.137 58.346,65.488 57.750 C 64.838 57.154,64.241 56.667,64.159 56.667 C 64.078 56.667,63.765 56.455,63.464 56.197 C 63.163 55.939,62.654 55.626,62.333 55.503 C 62.012 55.379,61.632 55.178,61.487 55.056 C 61.342 54.933,61.173 54.833,61.110 54.833 C 60.910 54.833,59.420 54.107,59.319 53.960 C 59.212 53.805,57.123 53.028,55.167 52.417 C 54.479 52.202,53.678 51.905,53.385 51.756 C 53.093 51.607,52.442 51.419,51.940 51.337 C 51.437 51.255,50.776 51.058,50.471 50.898 C 50.166 50.738,48.754 50.401,47.333 50.149 C 45.913 49.897,44.150 49.575,43.417 49.433 C 42.683 49.291,41.558 49.104,40.917 49.018 C 40.275 48.931,39.412 48.776,39.000 48.673 C 38.587 48.569,37.500 48.413,36.583 48.325 C 35.667 48.237,34.504 48.096,34.000 48.012 C 31.189 47.543,29.682 47.324,27.583 47.079 C 26.300 46.929,24.806 46.662,24.264 46.486 C 23.722 46.311,22.972 46.165,22.597 46.163 C 22.223 46.162,21.283 45.937,20.508 45.663 C 19.733 45.390,18.908 45.162,18.675 45.157 C 17.878 45.139,13.767 43.910,13.056 43.478 C 12.766 43.302,12.150 43.045,11.688 42.908 C 11.226 42.770,10.799 42.579,10.739 42.482 C 10.679 42.385,10.298 42.164,9.893 41.990 C 5.823 40.245,4.082 35.714,6.083 32.072 C 6.839 30.697,7.622 29.551,7.981 29.294 C 8.143 29.178,8.345 28.959,8.430 28.806 C 8.634 28.437,9.539 27.499,11.028 26.111 C 12.569 24.674,12.637 24.618,13.292 24.241 C 13.590 24.069,13.833 23.868,13.833 23.795 C 13.833 23.722,14.227 23.400,14.708 23.079 C 15.190 22.758,15.921 22.234,16.333 21.915 C 16.746 21.596,17.260 21.258,17.477 21.164 C 17.693 21.071,18.181 20.780,18.560 20.519 C 19.627 19.784,20.893 19.056,21.342 18.919 C 21.567 18.851,21.900 18.663,22.083 18.502 C 22.441 18.188,25.153 16.833,25.426 16.833 C 25.516 16.833,25.850 16.658,26.170 16.444 C 26.489 16.229,27.102 15.967,27.532 15.860 C 27.962 15.754,28.562 15.523,28.865 15.348 C 29.169 15.173,29.904 14.899,30.500 14.739 C 31.096 14.579,31.789 14.346,32.040 14.221 C 32.291 14.096,33.078 13.874,33.790 13.727 C 34.501 13.581,35.348 13.327,35.671 13.163 C 35.994 12.999,36.631 12.809,37.087 12.741 C 37.543 12.673,38.228 12.485,38.608 12.322 C 38.989 12.159,40.151 11.866,41.192 11.671 C 42.232 11.476,43.458 11.211,43.917 11.082 C 45.091 10.752,46.607 10.500,47.422 10.500 C 47.804 10.500,48.334 10.433,48.600 10.351 C 51.124 9.570,50.853 9.597,56.333 9.590 C 61.540 9.583,61.590 9.587,62.333 9.978 C 62.746 10.195,63.398 10.468,63.782 10.584 C 66.851 11.511,67.877 16.545,65.454 18.791 C 65.250 18.980,64.858 19.415,64.583 19.757 C 63.917 20.587,62.924 21.521,60.750 23.363 C 58.910 24.922,54.245 28.222,52.428 29.250 C 51.942 29.525,51.366 29.884,51.147 30.047 C 50.302 30.680,49.522 31.134,48.959 31.319 C 48.637 31.426,48.243 31.657,48.084 31.833 C 47.925 32.009,47.434 32.273,46.993 32.419 C 46.553 32.565,46.106 32.789,46.001 32.916 C 45.895 33.043,45.290 33.351,44.655 33.600 C 44.020 33.849,43.500 34.106,43.500 34.171 C 43.500 34.236,43.195 34.491,42.821 34.738 C 41.561 35.572,42.943 35.979,45.167 35.428 C 47.744 34.789,48.040 34.689,49.250 34.053 C 50.685 33.298,52.399 32.500,52.584 32.500 C 52.707 32.500,53.020 32.328,53.279 32.118 C 53.538 31.907,54.069 31.596,54.458 31.426 C 54.848 31.255,55.167 31.061,55.167 30.993 C 55.167 30.925,55.344 30.825,55.561 30.770 C 55.778 30.716,56.324 30.418,56.773 30.109 C 57.223 29.800,57.747 29.497,57.937 29.437 C 58.265 29.332,59.630 28.378,62.583 26.187 C 65.564 23.976,69.773 19.753,70.578 18.167 C 70.740 17.846,70.969 17.471,71.086 17.333 C 71.203 17.196,71.413 16.746,71.554 16.333 C 71.694 15.921,71.942 15.321,72.104 15.000 C 73.155 12.928,71.118 9.399,68.297 8.404 C 67.908 8.266,67.428 8.049,67.232 7.920 C 67.035 7.791,66.059 7.528,65.062 7.336 C 64.065 7.143,62.725 6.879,62.083 6.750 C 59.033 6.135,50.417 5.951,46.833 6.424 M263.384 7.554 C 262.042 8.048,259.146 11.721,258.172 14.167 C 258.044 14.487,257.803 14.929,257.636 15.147 C 257.470 15.366,257.333 15.645,257.333 15.767 C 257.333 16.062,256.883 17.422,256.511 18.250 C 256.346 18.617,256.157 19.292,256.090 19.750 C 256.024 20.208,255.800 20.958,255.593 21.417 C 255.378 21.892,255.168 22.782,255.104 23.488 C 255.043 24.169,254.882 25.106,254.748 25.571 C 254.614 26.036,254.433 26.867,254.346 27.417 C 253.856 30.531,253.661 31.556,253.427 32.245 C 253.284 32.667,253.167 33.108,253.167 33.226 C 253.167 34.878,252.520 35.402,250.250 35.591 C 249.517 35.652,248.467 35.815,247.917 35.953 C 247.367 36.091,246.467 36.260,245.917 36.328 C 245.367 36.396,243.867 36.578,242.583 36.733 C 241.300 36.888,239.768 37.125,239.178 37.261 C 238.588 37.396,237.201 37.587,236.095 37.684 C 234.262 37.846,233.124 38.016,230.750 38.483 C 228.363 38.953,219.444 39.168,218.356 38.782 C 217.978 38.648,217.671 38.361,217.415 37.901 L 217.034 37.218 217.538 36.817 C 219.058 35.609,219.222 35.246,218.423 34.856 C 217.568 34.438,213.148 35.346,212.300 36.114 C 210.610 37.643,211.226 40.291,213.474 41.164 C 213.992 41.365,214.708 41.639,215.064 41.772 C 217.158 42.554,227.982 42.365,231.528 41.484 C 232.231 41.309,233.281 41.166,233.861 41.165 C 234.442 41.165,235.397 41.086,235.985 40.991 C 236.572 40.896,237.547 40.748,238.151 40.662 C 238.756 40.576,239.588 40.429,240.000 40.333 C 240.412 40.238,241.513 40.092,242.446 40.008 C 243.379 39.923,244.651 39.697,245.273 39.505 C 245.895 39.313,247.156 39.080,248.077 38.986 C 248.997 38.893,250.109 38.711,250.547 38.582 C 252.287 38.071,252.374 38.606,251.402 43.833 C 251.172 45.071,250.883 46.946,250.760 48.000 C 250.637 49.054,250.417 50.329,250.271 50.833 C 250.115 51.374,249.937 53.021,249.837 54.850 C 249.621 58.820,249.212 60.466,248.164 61.586 C 247.991 61.770,247.734 62.196,247.594 62.533 C 247.453 62.869,247.264 63.190,247.174 63.246 C 247.083 63.301,246.857 63.663,246.671 64.049 C 246.007 65.423,243.963 67.715,241.547 69.793 C 241.201 70.091,240.714 70.522,240.466 70.751 C 240.218 70.980,239.954 71.167,239.879 71.167 C 239.804 71.167,239.295 71.503,238.747 71.915 C 238.199 72.326,237.691 72.664,237.618 72.665 C 237.545 72.666,237.395 72.744,237.285 72.839 C 236.764 73.284,235.045 74.190,234.300 74.411 C 233.844 74.546,233.234 74.798,232.944 74.970 C 231.727 75.693,228.289 75.872,227.000 75.280 C 225.121 74.417,223.213 72.675,222.670 71.326 C 222.543 71.009,222.265 70.489,222.053 70.170 C 221.840 69.850,221.667 69.466,221.667 69.316 C 221.667 69.165,221.553 68.719,221.414 68.325 C 220.720 66.359,220.649 61.410,221.279 58.917 C 221.418 58.367,221.603 57.510,221.689 57.014 C 221.776 56.517,221.982 55.992,222.148 55.847 C 222.420 55.609,222.815 54.595,223.062 53.502 C 223.352 52.221,221.423 51.712,220.488 52.824 C 219.873 53.554,219.059 53.290,217.369 51.812 C 217.068 51.549,216.729 51.333,216.616 51.333 C 216.503 51.333,216.150 51.156,215.830 50.939 C 214.404 49.970,209.939 49.901,208.917 50.831 C 208.733 50.998,208.305 51.249,207.964 51.390 C 206.649 51.931,202.587 55.679,201.521 57.333 C 201.374 57.563,200.915 58.189,200.502 58.725 C 200.088 59.261,199.584 59.948,199.381 60.253 C 199.178 60.557,198.937 60.853,198.844 60.910 C 198.752 60.967,198.525 61.329,198.341 61.715 C 198.157 62.101,197.744 62.754,197.424 63.167 C 197.103 63.579,196.637 64.254,196.387 64.667 C 196.137 65.079,195.882 65.454,195.821 65.500 C 195.759 65.546,195.516 65.869,195.280 66.218 C 195.044 66.568,194.491 67.273,194.051 67.785 C 193.610 68.297,192.987 69.022,192.667 69.396 C 191.557 70.689,187.880 74.264,187.344 74.570 C 187.170 74.669,186.582 75.098,186.036 75.524 C 181.479 79.077,177.023 78.546,175.342 74.250 C 175.126 73.700,174.830 72.987,174.683 72.667 C 174.450 72.155,174.416 70.971,174.410 63.083 C 174.402 53.126,174.436 53.452,173.321 52.658 C 172.026 51.736,168.848 54.778,167.913 57.833 C 167.843 58.063,167.619 58.475,167.416 58.750 C 167.212 59.025,166.963 59.497,166.862 59.799 C 166.761 60.101,166.539 60.551,166.367 60.799 C 166.196 61.047,165.925 61.587,165.766 62.000 C 165.606 62.413,165.344 62.977,165.182 63.255 C 165.020 63.533,164.840 63.950,164.782 64.182 C 164.724 64.414,164.493 64.817,164.268 65.078 C 164.044 65.339,163.811 65.814,163.752 66.134 C 163.692 66.453,163.423 67.103,163.155 67.579 C 162.886 68.055,162.667 68.537,162.667 68.650 C 162.667 68.764,162.442 69.184,162.167 69.583 C 161.892 69.983,161.667 70.411,161.667 70.535 C 161.667 70.658,161.563 70.907,161.437 71.088 C 161.311 71.269,160.897 72.010,160.518 72.734 C 156.627 80.173,155.046 76.686,155.743 62.196 C 155.830 60.396,155.813 59.156,155.693 58.530 C 155.594 58.009,155.468 57.298,155.414 56.949 C 155.096 54.914,152.090 55.686,151.160 58.040 C 151.043 58.339,150.817 58.733,150.660 58.917 C 150.502 59.100,150.275 59.550,150.156 59.917 C 150.036 60.283,149.735 61.033,149.487 61.583 C 149.238 62.133,148.985 62.822,148.923 63.113 C 148.862 63.405,148.708 63.730,148.582 63.835 C 148.455 63.940,148.235 64.378,148.091 64.809 C 147.879 65.447,147.489 65.915,145.982 67.338 C 143.425 69.751,139.921 73.333,136.785 76.737 C 135.657 77.962,134.802 77.009,134.413 74.093 C 134.353 73.640,134.130 72.928,133.919 72.510 C 133.707 72.092,133.485 71.347,133.425 70.855 C 133.366 70.363,133.179 69.651,133.010 69.272 C 132.724 68.630,132.487 67.364,131.988 63.814 C 131.877 63.024,131.833 61.974,131.890 61.481 C 131.946 60.987,132.071 59.646,132.167 58.500 C 132.263 57.354,132.415 56.057,132.504 55.617 C 132.594 55.177,132.667 54.118,132.667 53.265 C 132.667 52.411,132.742 51.316,132.833 50.833 C 133.416 47.761,131.751 47.514,129.123 50.282 C 128.186 51.268,127.757 51.416,126.583 51.155 C 125.207 50.848,124.388 50.793,124.035 50.981 C 123.852 51.079,123.263 51.208,122.726 51.266 C 121.122 51.442,117.279 53.464,115.583 55.025 C 115.308 55.278,114.725 55.786,114.287 56.154 C 113.849 56.523,113.186 57.182,112.813 57.620 C 112.440 58.058,111.786 58.817,111.359 59.307 C 110.933 59.797,110.480 60.397,110.355 60.640 C 110.229 60.884,109.994 61.233,109.832 61.417 C 109.670 61.600,109.384 62.057,109.195 62.433 C 109.007 62.808,108.436 63.624,107.926 64.246 C 107.417 64.867,107.000 65.440,107.000 65.519 C 107.000 65.598,106.595 66.139,106.101 66.722 C 105.606 67.305,105.082 68.014,104.935 68.297 C 104.789 68.581,104.535 68.911,104.372 69.032 C 104.208 69.152,103.785 69.649,103.430 70.138 C 102.350 71.627,98.296 75.865,97.417 76.426 C 97.142 76.601,96.818 76.877,96.698 77.040 C 96.578 77.202,96.241 77.458,95.948 77.608 C 95.656 77.758,95.215 78.048,94.969 78.254 C 92.669 80.173,86.654 80.121,85.430 78.172 C 85.346 78.038,85.099 77.750,84.881 77.533 C 83.758 76.409,83.378 71.645,84.175 68.667 C 84.261 68.346,84.332 67.858,84.333 67.583 C 84.334 67.308,84.520 66.558,84.747 65.917 C 84.974 65.275,85.161 64.532,85.163 64.266 C 85.165 64.000,85.361 63.371,85.599 62.868 C 85.837 62.365,86.092 61.532,86.166 61.018 C 86.240 60.504,86.459 59.466,86.653 58.711 C 87.693 54.663,86.237 53.595,83.684 56.533 C 83.065 57.245,81.833 59.572,81.833 60.030 C 81.833 60.161,81.626 60.602,81.372 61.009 C 81.118 61.417,80.812 61.972,80.693 62.244 C 80.573 62.515,80.068 63.361,79.571 64.124 C 79.074 64.887,78.667 65.572,78.667 65.647 C 78.667 65.721,78.516 65.918,78.331 66.085 C 76.903 67.377,77.301 68.728,78.936 68.137 C 79.819 67.818,80.059 68.144,79.931 69.493 C 79.510 73.944,79.672 77.886,80.341 79.417 C 80.501 79.783,80.745 80.346,80.883 80.667 C 82.345 84.068,87.889 84.941,91.983 82.414 C 92.500 82.094,92.980 81.833,93.049 81.833 C 93.185 81.833,94.643 80.892,95.360 80.341 C 95.603 80.153,95.866 80.000,95.943 80.000 C 96.486 79.998,101.910 75.234,103.776 73.119 C 104.158 72.687,104.551 72.333,104.650 72.333 C 104.749 72.333,104.924 72.183,105.039 72.000 C 105.528 71.217,105.833 71.582,105.839 72.958 C 105.848 74.878,106.323 76.731,107.021 77.568 C 107.104 77.668,107.303 77.908,107.461 78.100 C 108.410 79.252,110.928 79.753,112.807 79.165 C 113.388 78.982,114.033 78.833,114.241 78.833 C 114.449 78.833,115.041 78.608,115.557 78.333 C 116.072 78.058,116.626 77.833,116.789 77.832 C 116.951 77.832,117.283 77.701,117.526 77.541 C 119.393 76.315,120.839 75.312,121.333 74.902 C 122.350 74.058,125.848 70.431,125.996 70.067 C 126.748 68.226,127.971 67.563,128.252 68.843 C 128.310 69.105,128.491 69.604,128.655 69.951 C 128.820 70.299,129.001 70.939,129.057 71.374 C 129.114 71.809,129.349 72.538,129.580 72.993 C 129.811 73.449,130.000 73.939,130.000 74.082 C 130.000 74.225,130.157 74.771,130.348 75.296 C 130.772 76.456,130.957 77.111,131.229 78.417 C 131.343 78.967,131.526 79.580,131.635 79.781 C 132.096 80.628,131.660 81.558,129.931 83.417 C 129.419 83.967,129.000 84.462,129.000 84.517 C 129.000 84.573,128.810 84.835,128.579 85.101 C 128.347 85.366,128.101 85.658,128.032 85.750 C 127.963 85.842,127.478 86.456,126.953 87.116 C 126.429 87.776,126.000 88.383,126.000 88.465 C 126.000 88.547,125.781 88.870,125.512 89.182 C 124.459 90.409,124.045 90.957,123.410 91.967 C 123.047 92.545,122.544 93.255,122.292 93.546 C 122.040 93.836,121.833 94.163,121.833 94.271 C 121.833 94.380,121.571 94.783,121.250 95.167 C 120.929 95.551,120.667 95.944,120.667 96.042 C 120.667 96.139,120.490 96.451,120.275 96.734 C 120.059 97.018,119.751 97.505,119.590 97.818 C 119.429 98.130,119.153 98.541,118.976 98.731 C 118.799 98.921,118.608 99.266,118.551 99.497 C 118.494 99.728,118.272 100.178,118.057 100.497 C 117.843 100.816,117.667 101.134,117.667 101.202 C 117.667 101.271,117.367 101.958,117.000 102.730 C 116.633 103.502,116.333 104.202,116.333 104.285 C 116.333 104.369,116.185 104.597,116.003 104.792 C 115.821 104.987,115.592 105.507,115.494 105.948 C 115.395 106.389,115.219 106.900,115.102 107.083 C 114.984 107.267,114.645 108.166,114.347 109.083 C 114.050 109.999,113.730 110.840,113.638 110.952 C 113.545 111.063,113.409 111.640,113.335 112.233 C 113.262 112.827,113.087 113.541,112.948 113.821 C 112.618 114.483,112.557 114.802,112.233 117.583 C 111.670 122.426,111.998 128.434,112.915 130.083 C 113.119 130.450,113.329 131.032,113.383 131.377 C 113.436 131.721,113.621 132.209,113.794 132.460 C 113.967 132.711,114.209 133.179,114.332 133.500 C 114.936 135.081,116.708 137.200,117.804 137.654 C 118.133 137.791,118.333 137.992,118.333 138.187 C 118.333 138.481,118.505 138.500,121.167 138.500 C 123.848 138.500,124.000 138.483,124.000 138.180 C 124.000 137.952,124.225 137.777,124.792 137.566 C 125.227 137.404,125.787 137.116,126.036 136.927 C 126.285 136.738,126.806 136.358,127.193 136.083 C 128.481 135.168,131.572 131.849,132.277 130.624 C 132.537 130.171,133.320 129.086,133.849 128.442 C 134.087 128.153,134.635 127.129,135.066 126.167 C 135.497 125.204,135.987 124.154,136.154 123.833 C 136.322 123.513,136.511 122.950,136.574 122.583 C 136.637 122.217,136.830 121.617,137.003 121.250 C 137.176 120.883,137.515 119.646,137.755 118.500 C 137.995 117.354,138.335 115.742,138.511 114.917 C 138.686 114.092,138.831 113.071,138.832 112.648 C 138.833 112.225,139.002 111.250,139.208 110.481 C 139.777 108.361,139.786 96.328,139.220 94.250 C 139.021 93.517,138.766 92.204,138.653 91.333 C 138.541 90.462,138.376 89.563,138.286 89.333 C 138.196 89.104,138.026 88.279,137.909 87.500 C 137.441 84.377,137.275 83.554,136.977 82.877 C 136.238 81.196,136.184 81.285,140.708 76.753 C 142.931 74.526,145.012 72.414,145.333 72.060 C 145.654 71.706,146.517 70.873,147.250 70.209 C 148.816 68.790,148.641 68.961,149.580 67.936 C 149.989 67.489,150.371 66.978,150.427 66.802 C 150.485 66.618,150.647 66.504,150.806 66.534 C 151.045 66.580,151.108 67.023,151.267 69.769 C 151.367 71.519,151.508 73.045,151.579 73.160 C 151.650 73.275,151.841 74.147,152.003 75.099 C 152.983 80.857,156.244 81.671,160.292 77.168 C 161.115 76.252,162.000 75.079,162.000 74.904 C 162.000 74.802,162.150 74.583,162.333 74.417 C 162.517 74.251,162.667 74.023,162.667 73.910 C 162.667 73.797,162.929 73.322,163.250 72.856 C 163.571 72.390,163.833 71.958,163.833 71.898 C 163.833 71.759,165.118 69.005,165.340 68.667 C 165.431 68.529,165.581 68.225,165.674 67.992 C 165.767 67.758,165.985 67.308,166.160 66.992 C 166.334 66.675,166.604 66.154,166.760 65.833 C 168.022 63.228,168.445 62.453,168.781 62.138 C 168.993 61.938,169.167 61.685,169.167 61.575 C 169.167 61.222,169.599 60.967,169.790 61.206 C 170.691 62.336,170.841 64.071,170.593 70.500 C 170.449 74.205,170.836 76.610,171.747 77.694 C 171.978 77.968,172.167 78.259,172.167 78.341 C 172.167 78.572,173.285 79.633,173.820 79.910 C 174.085 80.047,174.403 80.257,174.526 80.376 C 175.611 81.428,182.911 81.255,183.586 80.162 C 183.641 80.073,183.813 79.998,183.968 79.995 C 184.225 79.990,184.641 79.800,186.333 78.913 C 186.837 78.649,187.950 77.869,189.064 77.000 C 189.611 76.573,191.373 74.952,192.107 74.199 C 193.116 73.166,193.802 73.703,194.087 75.750 C 194.345 77.601,195.911 79.858,197.443 80.584 C 199.097 81.369,202.427 81.241,203.833 80.339 C 204.063 80.192,204.475 79.963,204.750 79.832 C 206.111 79.179,209.142 76.356,211.549 73.500 C 211.896 73.087,212.618 72.262,213.152 71.667 C 213.687 71.071,214.409 70.260,214.756 69.866 C 215.338 69.206,216.235 68.667,216.751 68.667 C 216.991 68.667,217.333 69.872,217.333 70.716 C 217.333 71.028,217.509 71.614,217.724 72.018 C 217.938 72.421,218.210 73.051,218.327 73.417 C 218.984 75.467,221.699 78.448,223.333 78.915 C 223.563 78.981,224.012 79.192,224.333 79.385 C 225.230 79.926,229.974 79.926,231.035 79.386 C 231.428 79.185,232.161 78.897,232.663 78.745 C 233.166 78.593,233.766 78.339,233.997 78.181 C 234.228 78.023,234.732 77.803,235.118 77.692 C 235.503 77.582,235.925 77.385,236.055 77.254 C 236.185 77.124,236.570 76.861,236.910 76.671 C 237.249 76.480,237.949 76.007,238.464 75.620 C 238.980 75.233,239.602 74.804,239.847 74.667 C 240.092 74.529,240.949 73.817,241.752 73.083 C 244.491 70.581,244.367 70.707,247.411 67.333 C 247.618 67.104,248.104 66.448,248.492 65.875 C 249.535 64.332,249.726 64.494,249.915 67.083 C 249.987 68.076,250.144 68.952,250.303 69.250 C 250.450 69.525,250.735 70.425,250.935 71.250 C 252.870 79.208,259.066 83.492,265.675 81.442 C 266.459 81.199,267.198 81.000,267.318 81.000 C 267.438 81.000,267.996 80.785,268.560 80.522 C 269.123 80.258,269.833 79.960,270.137 79.859 C 270.442 79.758,270.917 79.486,271.192 79.254 C 271.467 79.023,271.767 78.833,271.858 78.833 C 271.949 78.833,272.350 78.608,272.750 78.333 C 273.150 78.058,273.540 77.833,273.616 77.833 C 273.693 77.833,274.114 77.537,274.552 77.176 C 274.990 76.814,275.495 76.471,275.674 76.414 C 275.853 76.357,276.000 76.248,276.000 76.170 C 276.000 76.093,276.506 75.668,277.123 75.228 C 278.873 73.979,284.493 68.546,284.498 68.099 C 284.504 67.634,287.078 64.690,287.293 64.904 C 287.482 65.093,287.435 66.286,287.187 67.583 C 286.939 68.876,287.013 72.481,287.317 73.917 C 287.414 74.375,287.544 75.125,287.606 75.583 C 287.749 76.627,288.882 78.852,289.755 79.805 C 291.348 81.542,293.791 81.872,297.155 80.805 C 297.796 80.601,299.638 79.386,300.209 78.789 C 301.516 77.426,302.629 76.184,302.917 75.769 C 303.100 75.505,303.501 74.951,303.807 74.539 C 304.114 74.127,304.489 73.586,304.641 73.338 C 305.237 72.362,306.001 71.468,306.563 71.087 L 307.152 70.687 307.493 71.238 C 307.680 71.541,307.833 71.842,307.833 71.905 C 307.833 71.969,308.021 72.431,308.250 72.932 C 308.479 73.433,308.667 73.939,308.667 74.057 C 308.667 74.174,308.816 74.430,308.998 74.626 C 309.180 74.821,309.478 75.267,309.660 75.616 C 310.912 78.010,313.948 80.368,316.441 80.881 C 318.072 81.216,321.546 81.018,322.917 80.512 C 323.467 80.309,324.290 80.028,324.746 79.887 C 325.202 79.746,325.741 79.502,325.942 79.343 C 326.144 79.184,326.652 78.924,327.071 78.764 C 327.490 78.603,327.833 78.412,327.833 78.339 C 327.833 78.266,328.227 78.008,328.708 77.766 C 329.190 77.524,329.883 77.099,330.250 76.822 C 330.617 76.545,331.310 76.056,331.792 75.737 C 332.273 75.418,332.667 75.100,332.667 75.031 C 332.667 74.962,332.903 74.766,333.192 74.595 C 333.736 74.274,339.167 68.958,339.167 68.747 C 339.167 68.682,339.606 68.130,340.143 67.522 C 340.681 66.914,341.247 66.169,341.402 65.866 C 341.557 65.563,341.794 65.188,341.928 65.033 C 342.807 64.014,343.198 63.466,343.415 62.947 C 343.551 62.622,343.731 62.313,343.816 62.261 C 343.900 62.209,344.393 61.535,344.911 60.765 C 346.027 59.106,345.951 59.135,348.755 59.327 C 351.276 59.500,352.437 59.830,353.167 60.584 C 353.931 61.372,353.914 61.904,352.928 68.250 C 352.176 73.084,353.003 77.057,355.266 79.484 C 355.826 80.085,359.891 79.935,361.340 79.260 C 361.840 79.027,362.358 78.836,362.489 78.835 C 363.036 78.831,366.926 76.875,367.770 76.179 C 369.660 74.620,370.036 74.418,370.510 74.705 C 370.925 74.955,371.412 75.849,371.578 76.667 C 371.644 76.987,371.867 77.513,372.075 77.836 C 372.283 78.158,372.510 78.602,372.580 78.822 C 372.961 80.024,376.342 82.567,378.044 82.932 C 379.917 83.334,383.798 83.048,384.457 82.460 C 384.618 82.316,385.087 82.109,385.500 82.001 C 385.912 81.892,386.400 81.669,386.583 81.504 C 386.767 81.339,387.222 81.051,387.594 80.864 C 387.967 80.677,388.370 80.406,388.490 80.262 C 388.610 80.118,388.797 80.000,388.907 80.000 C 389.017 80.000,389.364 79.771,389.678 79.491 C 389.993 79.211,390.705 78.575,391.261 78.079 C 391.817 77.582,392.454 77.019,392.678 76.827 C 395.281 74.590,398.547 70.833,398.924 69.641 C 399.115 69.038,399.514 68.500,399.769 68.500 C 399.949 68.500,400.000 68.167,400.000 67.000 C 400.000 65.304,399.928 65.231,398.856 65.850 C 398.266 66.190,396.833 67.942,396.833 68.323 C 396.833 68.427,396.552 68.802,396.208 69.155 C 395.865 69.509,395.373 70.087,395.117 70.441 C 394.330 71.526,392.429 73.573,390.750 75.143 C 389.805 76.026,388.032 77.315,387.398 77.581 C 387.048 77.727,386.621 77.974,386.449 78.130 C 385.527 78.964,380.485 79.035,379.484 78.228 C 379.355 78.124,378.875 77.850,378.417 77.619 C 377.958 77.388,377.358 77.005,377.083 76.767 C 376.808 76.528,376.525 76.334,376.455 76.334 C 376.384 76.333,376.237 76.127,376.129 75.875 C 376.020 75.623,375.703 75.090,375.424 74.690 C 374.284 73.056,374.699 70.861,376.503 68.988 C 377.562 67.889,379.943 65.244,380.167 64.919 C 380.304 64.719,380.604 64.359,380.833 64.118 C 381.063 63.878,381.458 63.396,381.711 63.049 C 381.965 62.701,382.434 62.060,382.753 61.624 C 383.072 61.187,383.333 60.770,383.333 60.697 C 383.333 60.623,383.488 60.397,383.677 60.194 C 383.866 59.991,384.137 59.546,384.279 59.204 C 384.422 58.863,384.667 58.396,384.825 58.167 C 384.982 57.938,385.239 57.422,385.396 57.022 C 385.552 56.622,385.864 56.052,386.090 55.756 C 386.315 55.461,386.500 55.035,386.500 54.811 C 386.500 54.587,386.657 54.107,386.848 53.744 C 388.882 49.889,387.140 46.788,383.590 47.944 C 381.672 48.568,379.729 50.101,378.198 52.196 C 377.818 52.717,377.433 53.189,377.341 53.245 C 377.126 53.378,376.134 54.891,375.698 55.750 C 375.512 56.117,375.143 56.845,374.878 57.369 C 374.613 57.892,374.277 58.455,374.130 58.619 C 373.984 58.783,373.775 59.253,373.665 59.665 C 373.555 60.077,373.335 60.602,373.175 60.832 C 373.015 61.062,372.757 61.767,372.601 62.398 C 372.445 63.030,372.213 63.749,372.085 63.996 C 371.957 64.244,371.766 64.965,371.661 65.598 C 371.556 66.232,371.290 67.302,371.069 67.977 C 370.841 68.673,370.667 69.603,370.667 70.124 C 370.667 70.996,370.629 71.079,369.932 71.730 C 368.917 72.679,368.071 73.333,367.860 73.333 C 367.762 73.333,367.510 73.505,367.299 73.715 C 367.089 73.926,366.579 74.232,366.167 74.396 C 365.754 74.560,365.292 74.807,365.139 74.944 C 364.987 75.081,364.349 75.328,363.723 75.493 C 363.096 75.658,362.358 75.885,362.083 75.997 C 360.200 76.763,357.783 75.854,356.788 74.005 C 355.962 72.472,355.856 69.429,356.575 67.933 C 356.810 67.447,357.064 66.481,357.171 65.674 C 357.274 64.898,357.432 64.127,357.522 63.959 C 357.847 63.351,357.598 59.528,357.153 58.315 C 356.403 56.267,355.002 55.392,352.099 55.159 C 348.046 54.834,347.522 54.596,348.150 53.365 C 349.422 50.873,349.072 48.239,347.287 46.862 C 345.413 45.416,343.842 46.092,342.507 48.917 C 340.601 52.952,340.733 55.921,342.903 57.793 C 343.247 58.090,343.317 58.266,343.237 58.626 C 343.099 59.243,342.011 61.355,341.671 61.667 C 341.521 61.804,341.297 62.179,341.172 62.500 C 341.048 62.821,340.823 63.233,340.672 63.417 C 340.439 63.701,339.998 64.336,339.250 65.468 C 338.713 66.280,334.820 70.240,332.958 71.869 C 332.305 72.440,331.991 72.685,330.333 73.920 C 330.012 74.159,329.262 74.660,328.667 75.033 C 328.071 75.406,327.433 75.842,327.250 76.002 C 327.067 76.162,326.617 76.385,326.250 76.498 C 325.883 76.611,325.324 76.852,325.007 77.033 C 324.689 77.215,323.789 77.537,323.007 77.750 C 322.224 77.962,321.265 78.233,320.875 78.352 C 318.827 78.979,314.426 76.236,313.889 74.000 C 313.835 73.771,313.658 73.433,313.496 73.250 C 313.335 73.067,313.149 72.654,313.084 72.333 C 313.019 72.012,312.827 71.300,312.656 70.750 C 311.774 67.900,311.809 61.771,312.727 58.250 C 313.385 55.727,312.976 53.842,311.816 54.060 C 310.916 54.229,308.852 56.390,308.514 57.518 C 308.407 57.875,308.257 58.167,308.179 58.167 C 308.102 58.167,307.876 58.598,307.677 59.125 C 307.478 59.652,307.175 60.349,307.005 60.674 C 306.835 60.999,306.615 61.705,306.515 62.244 C 306.416 62.783,306.216 63.404,306.072 63.624 C 305.928 63.843,305.706 64.524,305.578 65.136 C 305.160 67.129,304.321 69.483,303.759 70.233 C 303.546 70.517,303.315 70.937,303.245 71.165 C 303.176 71.394,302.811 71.951,302.434 72.405 C 302.058 72.858,301.655 73.346,301.539 73.489 C 300.422 74.867,297.887 77.228,297.208 77.522 C 294.883 78.532,292.681 77.225,291.838 74.333 C 291.717 73.921,291.517 73.262,291.393 72.869 C 291.009 71.655,291.099 68.332,291.583 65.900 C 291.813 64.749,292.003 63.419,292.006 62.945 C 292.011 62.176,292.112 61.658,292.674 59.500 C 292.862 58.774,292.877 55.327,292.692 55.036 C 292.399 54.573,291.374 54.593,290.679 55.075 C 289.894 55.619,289.225 56.373,287.203 58.990 C 286.993 59.261,286.737 59.731,286.634 60.033 C 286.530 60.336,286.233 60.844,285.973 61.163 C 285.713 61.482,285.500 61.819,285.500 61.913 C 285.499 62.007,285.275 62.346,285.000 62.667 C 284.725 62.987,284.501 63.375,284.500 63.529 C 284.500 63.682,284.323 64.020,284.106 64.279 C 283.890 64.538,283.658 64.923,283.592 65.134 C 283.526 65.345,283.216 65.751,282.903 66.035 C 282.590 66.320,282.333 66.629,282.333 66.721 C 282.333 66.934,281.853 67.456,279.583 69.705 C 276.993 72.271,276.925 72.333,276.714 72.333 C 276.610 72.333,276.350 72.556,276.137 72.828 C 275.924 73.099,275.219 73.681,274.569 74.119 C 273.920 74.558,272.833 75.292,272.154 75.750 C 270.669 76.753,270.102 77.091,269.333 77.431 C 269.012 77.572,268.375 77.866,267.917 78.084 C 267.458 78.302,266.407 78.633,265.580 78.819 L 264.077 79.159 262.566 78.775 C 261.643 78.541,260.828 78.219,260.470 77.946 C 260.148 77.701,259.829 77.500,259.761 77.500 C 259.492 77.500,257.818 75.930,257.475 75.357 C 257.276 75.023,256.929 74.563,256.705 74.333 C 256.167 73.783,255.167 72.162,255.166 71.839 C 255.166 71.698,255.019 71.343,254.840 71.050 C 253.926 69.551,253.171 66.443,252.886 63.000 C 252.758 61.458,253.217 58.827,253.832 57.583 C 254.103 57.033,254.328 56.452,254.330 56.292 C 254.332 56.131,254.392 56.000,254.464 56.000 C 254.685 56.000,255.167 55.056,255.167 54.624 C 255.167 54.400,255.342 53.886,255.556 53.483 C 255.770 53.080,256.112 52.249,256.316 51.638 C 256.519 51.026,256.790 50.438,256.918 50.332 C 257.046 50.226,257.200 49.807,257.261 49.401 C 257.322 48.995,257.510 48.487,257.678 48.273 C 257.847 48.059,258.141 47.302,258.331 46.591 C 258.522 45.880,258.815 45.025,258.983 44.691 C 259.151 44.357,259.341 43.783,259.406 43.417 C 259.470 43.050,259.708 42.479,259.935 42.149 C 260.161 41.818,260.413 41.180,260.495 40.732 C 260.660 39.835,261.112 38.542,261.548 37.721 C 261.886 37.084,262.587 36.911,265.420 36.762 C 266.431 36.709,268.043 36.516,269.003 36.333 C 269.964 36.150,271.274 35.999,271.916 35.998 C 272.558 35.997,274.283 35.883,275.750 35.745 C 277.217 35.607,279.392 35.420,280.583 35.330 C 281.775 35.240,283.427 35.093,284.254 35.003 C 285.081 34.914,287.068 34.795,288.671 34.740 C 291.264 34.650,293.715 34.409,296.250 33.994 C 296.708 33.919,297.774 33.852,298.619 33.846 C 299.464 33.839,300.889 33.759,301.786 33.668 C 306.041 33.236,307.265 33.132,309.667 32.996 C 311.087 32.916,313.525 32.772,315.083 32.676 C 316.642 32.581,320.539 32.459,323.744 32.405 C 326.949 32.351,329.686 32.249,329.827 32.178 C 329.968 32.108,330.571 31.954,331.167 31.836 C 332.594 31.556,333.000 31.294,333.000 30.655 C 333.000 30.083,332.360 29.333,331.872 29.333 C 331.702 29.333,330.967 29.169,330.240 28.967 C 328.658 28.530,320.353 28.449,316.000 28.828 C 313.217 29.070,313.340 29.062,308.167 29.320 C 306.012 29.428,303.800 29.582,303.250 29.664 C 302.700 29.746,301.500 29.929,300.583 30.072 C 299.667 30.215,298.204 30.338,297.333 30.346 C 295.644 30.361,294.366 30.469,290.917 30.887 C 288.935 31.128,287.342 31.259,281.333 31.675 C 280.188 31.755,278.725 31.934,278.083 32.074 C 277.442 32.214,275.717 32.406,274.250 32.502 C 272.783 32.598,271.246 32.785,270.833 32.918 C 270.421 33.051,269.183 33.238,268.083 33.334 C 266.983 33.430,265.723 33.582,265.283 33.671 C 263.192 34.095,262.203 33.620,262.960 32.555 C 263.145 32.296,263.379 31.558,263.481 30.917 C 263.652 29.845,263.853 29.029,264.570 26.500 C 264.713 25.996,264.830 25.379,264.831 25.130 C 264.832 24.881,264.986 24.405,265.172 24.073 C 265.389 23.687,265.569 22.919,265.671 21.943 C 265.759 21.104,265.908 20.079,266.001 19.667 C 267.063 14.987,267.056 9.718,265.988 8.573 C 265.811 8.383,265.667 8.151,265.667 8.057 C 265.667 7.427,264.456 7.161,263.384 7.554 M263.825 16.000 C 263.651 16.962,263.442 18.350,263.358 19.083 C 263.275 19.817,263.090 20.754,262.946 21.167 C 262.802 21.579,262.521 22.817,262.320 23.917 C 262.120 25.017,261.887 26.051,261.802 26.215 C 261.717 26.379,261.539 27.084,261.405 27.782 C 261.272 28.480,261.020 29.283,260.845 29.567 C 260.670 29.851,260.445 30.675,260.345 31.397 C 260.230 32.230,259.996 33.024,259.707 33.564 L 259.250 34.417 257.931 34.466 C 256.205 34.530,255.956 33.948,256.845 31.926 C 257.008 31.554,257.218 30.565,257.310 29.729 C 257.403 28.892,257.595 27.929,257.737 27.589 C 257.879 27.249,258.073 26.471,258.169 25.860 C 258.549 23.417,258.935 21.751,259.202 21.393 C 259.281 21.288,259.389 20.800,259.444 20.309 C 259.498 19.818,259.681 19.186,259.851 18.903 C 260.021 18.621,260.277 17.931,260.420 17.372 C 260.804 15.873,261.740 14.164,262.467 13.636 L 263.083 13.189 263.611 13.719 L 264.140 14.250 263.825 16.000 M258.077 37.891 C 258.463 38.173,258.363 39.188,257.853 40.166 C 257.664 40.529,257.363 41.372,257.185 42.038 C 256.780 43.550,256.005 45.693,255.525 46.624 C 255.324 47.014,255.115 47.666,255.059 48.074 C 254.961 48.787,254.795 49.114,253.933 50.289 C 253.211 51.272,253.114 49.787,253.734 47.233 C 253.954 46.326,254.185 45.072,254.248 44.447 C 254.311 43.822,254.506 42.985,254.682 42.587 C 254.858 42.190,255.043 41.389,255.094 40.807 C 255.321 38.200,255.537 37.931,257.593 37.688 C 257.690 37.676,257.908 37.768,258.077 37.891 M383.155 52.606 C 384.010 53.694,383.751 56.212,382.609 57.895 C 382.396 58.209,382.125 58.699,382.007 58.983 C 381.889 59.267,381.729 59.500,381.650 59.500 C 381.571 59.500,381.345 59.817,381.147 60.204 C 380.782 60.920,378.619 63.728,378.112 64.145 C 377.959 64.271,377.833 64.458,377.833 64.560 C 377.833 64.892,375.464 67.022,375.206 66.923 C 374.921 66.813,375.047 65.808,375.418 65.231 C 375.542 65.038,375.728 64.400,375.832 63.815 C 375.935 63.229,376.135 62.413,376.276 62.000 C 376.417 61.587,376.686 60.806,376.873 60.264 C 377.061 59.722,377.385 59.026,377.595 58.717 C 377.804 58.408,378.029 57.915,378.093 57.621 C 378.158 57.327,378.380 56.861,378.586 56.585 C 378.792 56.309,379.010 55.921,379.071 55.723 C 379.131 55.525,379.397 55.075,379.663 54.723 C 380.102 54.141,380.374 53.808,381.291 52.725 C 381.557 52.410,381.897 52.272,382.613 52.189 C 382.721 52.177,382.965 52.364,383.155 52.606 M214.414 54.499 C 216.016 55.186,216.488 56.374,216.070 58.673 C 215.564 61.456,215.560 61.338,216.183 61.847 C 216.820 62.366,216.768 62.603,215.770 63.732 C 215.484 64.055,215.005 64.641,214.705 65.035 C 214.405 65.428,213.767 66.228,213.288 66.811 C 212.809 67.395,212.267 68.074,212.083 68.321 C 211.900 68.568,211.300 69.225,210.750 69.781 C 210.200 70.337,209.405 71.157,208.983 71.604 C 207.282 73.405,204.464 75.667,203.920 75.667 C 203.809 75.667,203.589 75.810,203.431 75.984 C 203.083 76.369,201.151 76.614,200.481 76.358 C 199.446 75.963,198.705 74.851,198.323 73.117 C 198.206 72.586,198.048 72.113,197.972 72.066 C 197.739 71.922,197.823 69.794,198.092 69.022 C 198.231 68.622,198.385 67.947,198.434 67.522 C 198.549 66.531,199.545 63.929,200.165 63.000 C 200.318 62.771,200.812 62.030,201.263 61.354 C 202.293 59.809,204.398 57.650,205.833 56.666 C 206.154 56.446,206.457 56.209,206.506 56.139 C 206.555 56.070,206.892 55.890,207.256 55.740 C 207.619 55.590,208.030 55.366,208.169 55.243 C 208.440 55.003,210.760 54.236,211.583 54.114 C 212.359 54.000,213.664 54.177,214.414 54.499 M125.223 55.260 C 125.639 55.523,126.058 55.891,126.154 56.078 C 126.250 56.264,126.491 56.618,126.689 56.864 C 127.376 57.718,127.246 61.743,126.495 62.833 C 126.338 63.063,126.125 63.645,126.022 64.127 C 125.920 64.609,125.573 65.558,125.251 66.236 C 124.930 66.914,124.667 67.521,124.667 67.585 C 124.667 67.649,124.479 67.925,124.250 68.197 C 124.021 68.469,123.833 68.795,123.833 68.920 C 123.833 69.045,123.695 69.246,123.525 69.366 C 123.355 69.485,123.096 69.817,122.948 70.104 C 122.801 70.390,122.246 71.101,121.715 71.683 C 117.498 76.313,113.686 77.347,111.110 74.559 C 109.894 73.244,109.831 69.373,110.985 66.797 C 111.243 66.221,111.505 65.536,111.567 65.275 C 111.630 65.014,111.818 64.601,111.984 64.358 C 112.151 64.115,112.613 63.354,113.012 62.667 C 113.411 61.979,113.890 61.262,114.077 61.073 C 114.563 60.583,115.095 59.931,115.442 59.402 C 115.789 58.872,117.706 56.997,118.129 56.774 C 118.287 56.690,118.604 56.454,118.833 56.248 C 119.063 56.042,119.519 55.788,119.848 55.683 C 120.177 55.578,120.598 55.350,120.785 55.176 C 121.523 54.489,124.080 54.537,125.223 55.260 M133.232 84.875 C 133.650 85.527,134.289 87.706,134.413 88.898 C 134.478 89.529,134.667 90.363,134.833 90.750 C 134.999 91.137,135.186 91.971,135.247 92.602 C 135.309 93.233,135.515 95.025,135.705 96.583 C 136.108 99.897,136.204 108.252,135.861 110.167 C 135.754 110.763,135.552 112.504,135.413 114.037 C 135.237 115.963,135.058 117.059,134.834 117.583 C 134.655 118.000,134.462 118.846,134.405 119.462 C 134.294 120.656,133.149 124.305,132.666 125.000 C 132.507 125.229,132.325 125.583,132.262 125.787 C 132.104 126.295,130.716 128.585,130.413 128.836 C 130.278 128.949,130.167 129.129,130.167 129.238 C 130.167 129.346,129.904 129.689,129.583 130.000 C 129.262 130.311,129.000 130.631,129.000 130.710 C 129.000 131.023,126.691 133.043,125.667 133.627 C 124.306 134.403,121.710 134.558,120.972 133.908 C 120.758 133.719,120.266 133.363,119.879 133.116 C 119.492 132.869,119.045 132.461,118.886 132.209 C 118.728 131.956,118.388 131.504,118.132 131.203 C 117.876 130.901,117.667 130.555,117.667 130.433 C 117.667 130.311,117.530 130.033,117.362 129.814 C 115.320 127.146,114.542 117.606,115.992 113.000 C 116.573 111.154,116.636 110.934,116.754 110.333 C 116.818 110.013,117.007 109.523,117.176 109.245 C 117.344 108.967,117.564 108.374,117.664 107.928 C 117.764 107.482,117.985 106.922,118.154 106.684 C 118.324 106.445,118.579 105.859,118.720 105.382 C 118.862 104.904,119.163 104.192,119.388 103.798 C 119.614 103.405,119.854 102.900,119.921 102.676 C 119.988 102.452,120.173 102.152,120.332 102.009 C 120.491 101.867,120.719 101.487,120.839 101.167 C 120.960 100.846,121.185 100.396,121.341 100.167 C 121.496 99.938,121.681 99.563,121.752 99.333 C 121.824 99.104,122.115 98.605,122.399 98.224 C 122.942 97.499,123.360 96.838,123.917 95.827 C 124.100 95.494,124.419 94.992,124.625 94.710 C 124.831 94.429,125.000 94.121,125.000 94.027 C 125.000 93.933,125.219 93.700,125.487 93.509 C 125.755 93.318,126.020 92.957,126.076 92.706 C 126.177 92.255,126.570 91.693,127.625 90.493 C 127.923 90.154,128.167 89.820,128.167 89.752 C 128.167 89.683,128.373 89.385,128.625 89.088 C 128.877 88.791,129.383 88.158,129.750 87.682 C 130.117 87.205,130.660 86.548,130.958 86.220 C 131.256 85.893,131.500 85.562,131.500 85.485 C 131.500 85.336,132.661 84.500,132.868 84.500 C 132.936 84.500,133.100 84.669,133.232 84.875 " stroke="none" fill="#121212" fill-rule="evenodd"></path><path id="path1" d="M0.000 16.500 C 0.000 32.409,0.011 33.000,0.307 33.000 C 0.607 33.000,1.000 32.384,1.000 31.913 C 1.000 31.355,3.007 27.958,3.833 27.117 C 3.971 26.977,4.346 26.555,4.667 26.179 C 5.419 25.298,6.295 24.419,7.254 23.583 C 7.675 23.217,8.184 22.767,8.385 22.583 C 8.586 22.400,8.909 22.137,9.104 22.000 C 9.298 21.863,9.898 21.416,10.437 21.007 C 11.532 20.177,11.552 20.161,12.250 19.609 C 12.525 19.392,12.987 19.092,13.276 18.944 C 13.565 18.796,13.903 18.576,14.026 18.455 C 14.149 18.335,14.588 18.065,15.000 17.856 C 16.386 17.154,17.700 16.382,17.809 16.207 C 17.868 16.112,18.798 15.613,19.875 15.099 C 20.952 14.586,21.833 14.094,21.833 14.006 C 21.833 13.918,22.202 13.737,22.652 13.603 C 23.103 13.469,23.759 13.205,24.111 13.017 C 25.028 12.524,27.261 11.500,27.417 11.500 C 27.490 11.500,28.007 11.286,28.566 11.023 C 29.699 10.493,31.690 9.782,33.333 9.322 C 33.929 9.155,34.811 8.864,35.293 8.676 C 35.776 8.488,36.397 8.333,36.675 8.333 C 36.953 8.333,37.458 8.194,37.798 8.024 C 38.138 7.854,39.429 7.556,40.667 7.363 C 41.904 7.169,43.442 6.927,44.083 6.824 C 49.680 5.931,57.857 5.898,62.083 6.750 C 62.725 6.879,64.065 7.143,65.062 7.336 C 66.059 7.528,67.035 7.791,67.232 7.920 C 67.428 8.049,67.908 8.266,68.297 8.404 C 71.118 9.399,73.155 12.928,72.104 15.000 C 71.942 15.321,71.694 15.921,71.554 16.333 C 71.413 16.746,71.203 17.196,71.086 17.333 C 70.969 17.471,70.740 17.846,70.578 18.167 C 69.773 19.753,65.564 23.976,62.583 26.187 C 59.630 28.378,58.265 29.332,57.937 29.437 C 57.747 29.497,57.223 29.800,56.773 30.109 C 56.324 30.418,55.778 30.716,55.561 30.770 C 55.344 30.825,55.167 30.925,55.167 30.993 C 55.167 31.061,54.848 31.255,54.458 31.426 C 54.069 31.596,53.538 31.907,53.279 32.118 C 53.020 32.328,52.707 32.500,52.584 32.500 C 52.399 32.500,50.685 33.298,49.250 34.053 C 48.040 34.689,47.744 34.789,45.167 35.428 C 42.943 35.979,41.561 35.572,42.821 34.738 C 43.195 34.491,43.500 34.236,43.500 34.171 C 43.500 34.106,44.020 33.849,44.655 33.600 C 45.290 33.351,45.895 33.043,46.001 32.916 C 46.106 32.789,46.553 32.565,46.993 32.419 C 47.434 32.273,47.925 32.009,48.084 31.833 C 48.243 31.657,48.637 31.426,48.959 31.319 C 49.522 31.134,50.302 30.680,51.147 30.047 C 51.366 29.884,51.942 29.525,52.428 29.250 C 54.245 28.222,58.910 24.922,60.750 23.363 C 62.924 21.521,63.917 20.587,64.583 19.757 C 64.858 19.415,65.250 18.980,65.454 18.791 C 67.877 16.545,66.851 11.511,63.782 10.584 C 63.398 10.468,62.746 10.195,62.333 9.978 C 61.590 9.587,61.540 9.583,56.333 9.590 C 50.853 9.597,51.124 9.570,48.600 10.351 C 48.334 10.433,47.804 10.500,47.422 10.500 C 46.607 10.500,45.091 10.752,43.917 11.082 C 43.458 11.211,42.232 11.476,41.192 11.671 C 40.151 11.866,38.989 12.159,38.608 12.322 C 38.228 12.485,37.543 12.673,37.087 12.741 C 36.631 12.809,35.994 12.999,35.671 13.163 C 35.348 13.327,34.501 13.581,33.790 13.727 C 33.078 13.874,32.291 14.096,32.040 14.221 C 31.789 14.346,31.096 14.579,30.500 14.739 C 29.904 14.899,29.169 15.173,28.865 15.348 C 28.562 15.523,27.962 15.754,27.532 15.860 C 27.102 15.967,26.489 16.229,26.170 16.444 C 25.850 16.658,25.516 16.833,25.426 16.833 C 25.153 16.833,22.441 18.188,22.083 18.502 C 21.900 18.663,21.567 18.851,21.342 18.919 C 20.893 19.056,19.627 19.784,18.560 20.519 C 18.181 20.780,17.693 21.071,17.477 21.164 C 17.260 21.258,16.746 21.596,16.333 21.915 C 15.921 22.234,15.190 22.758,14.708 23.079 C 14.227 23.400,13.833 23.722,13.833 23.795 C 13.833 23.868,13.590 24.069,13.292 24.241 C 12.637 24.618,12.569 24.674,11.028 26.111 C 9.539 27.499,8.634 28.437,8.430 28.806 C 8.345 28.959,8.143 29.178,7.981 29.294 C 7.622 29.551,6.839 30.697,6.083 32.072 C 4.082 35.714,5.823 40.245,9.893 41.990 C 10.298 42.164,10.679 42.385,10.739 42.482 C 10.799 42.579,11.226 42.770,11.688 42.908 C 12.150 43.045,12.766 43.302,13.056 43.478 C 13.767 43.910,17.878 45.139,18.675 45.157 C 18.908 45.162,19.733 45.390,20.508 45.663 C 21.283 45.937,22.223 46.162,22.597 46.163 C 22.972 46.165,23.722 46.311,24.264 46.486 C 24.806 46.662,26.300 46.929,27.583 47.079 C 29.682 47.324,31.189 47.543,34.000 48.012 C 34.504 48.096,35.667 48.237,36.583 48.325 C 37.500 48.413,38.587 48.569,39.000 48.673 C 39.412 48.776,40.275 48.931,40.917 49.018 C 41.558 49.104,42.683 49.291,43.417 49.433 C 44.150 49.575,45.913 49.897,47.333 50.149 C 48.754 50.401,50.166 50.738,50.471 50.898 C 50.776 51.058,51.437 51.255,51.940 51.337 C 52.442 51.419,53.093 51.607,53.385 51.756 C 53.678 51.905,54.479 52.202,55.167 52.417 C 57.123 53.028,59.212 53.805,59.319 53.960 C 59.420 54.107,60.910 54.833,61.110 54.833 C 61.173 54.833,61.342 54.933,61.487 55.056 C 61.632 55.178,62.012 55.379,62.333 55.503 C 62.654 55.626,63.163 55.939,63.464 56.197 C 63.765 56.455,64.078 56.667,64.159 56.667 C 64.241 56.667,64.838 57.154,65.488 57.750 C 66.137 58.346,66.730 58.833,66.806 58.833 C 66.882 58.833,67.048 59.040,67.175 59.292 C 67.302 59.544,67.653 60.145,67.953 60.628 C 68.254 61.111,68.500 61.581,68.500 61.673 C 68.500 61.765,68.692 62.207,68.927 62.657 C 69.986 64.682,69.415 69.581,67.737 72.875 C 67.515 73.311,67.333 73.743,67.333 73.836 C 67.333 74.363,63.388 78.599,61.687 79.898 C 59.880 81.278,58.578 82.167,58.362 82.167 C 58.283 82.167,58.098 82.298,57.950 82.458 C 57.803 82.619,56.951 83.125,56.057 83.583 C 55.163 84.042,54.336 84.504,54.218 84.611 C 54.101 84.718,53.610 84.935,53.127 85.095 C 52.645 85.254,52.100 85.479,51.917 85.594 C 51.733 85.710,51.021 85.964,50.333 86.159 C 49.646 86.355,48.821 86.652,48.500 86.820 C 48.179 86.988,47.535 87.173,47.068 87.231 C 46.602 87.290,45.927 87.478,45.568 87.650 C 45.210 87.822,44.204 88.050,43.333 88.156 C 42.462 88.262,41.150 88.437,40.417 88.545 C 36.572 89.109,26.434 88.532,24.943 87.664 C 24.654 87.496,24.117 87.306,23.750 87.242 C 23.383 87.179,22.726 86.951,22.290 86.736 C 21.853 86.521,21.178 86.260,20.790 86.156 C 19.953 85.931,18.424 85.256,16.583 84.298 C 15.850 83.916,14.875 83.419,14.417 83.195 C 13.958 82.970,13.373 82.611,13.117 82.397 C 12.860 82.183,12.405 81.891,12.105 81.749 C 11.420 81.424,8.603 78.981,8.210 78.371 C 8.049 78.121,7.810 77.790,7.680 77.635 C 6.178 75.848,6.687 72.744,8.771 70.982 C 10.066 69.887,10.905 70.077,10.575 71.391 C 10.047 73.493,12.913 78.080,15.755 79.684 C 16.256 79.967,16.707 80.264,16.757 80.345 C 16.807 80.425,17.126 80.620,17.465 80.779 C 17.805 80.937,18.121 81.116,18.167 81.176 C 18.300 81.353,19.296 81.833,19.533 81.835 C 19.653 81.836,20.162 82.031,20.667 82.268 C 21.171 82.505,21.996 82.808,22.500 82.941 C 23.004 83.075,23.570 83.284,23.757 83.406 C 23.944 83.528,24.544 83.718,25.090 83.827 C 25.636 83.937,26.571 84.159,27.167 84.322 C 28.706 84.743,30.151 84.999,31.010 85.004 C 31.417 85.006,32.966 85.182,34.453 85.396 C 36.504 85.691,37.368 85.750,38.036 85.638 C 39.288 85.429,41.326 85.175,43.167 84.999 C 44.038 84.915,45.313 84.690,46.000 84.498 C 46.688 84.305,47.654 84.035,48.148 83.896 C 48.642 83.758,49.204 83.543,49.398 83.420 C 49.592 83.296,50.087 83.100,50.500 82.984 C 50.913 82.868,51.438 82.647,51.667 82.493 C 51.896 82.339,52.383 82.117,52.750 82.000 C 53.482 81.766,55.728 80.582,56.051 80.259 C 56.163 80.147,56.609 79.874,57.041 79.652 C 58.731 78.788,61.178 76.527,61.824 75.233 C 62.032 74.817,62.310 74.434,62.442 74.384 C 63.538 73.963,64.494 69.261,63.983 66.800 C 63.505 64.494,60.884 61.725,58.367 60.866 C 58.065 60.763,57.624 60.526,57.386 60.339 C 57.149 60.153,56.843 60.000,56.707 60.000 C 56.570 60.000,56.036 59.814,55.521 59.586 C 55.005 59.358,54.155 59.063,53.631 58.930 C 53.108 58.797,52.351 58.496,51.950 58.261 C 51.549 58.026,51.090 57.833,50.930 57.833 C 50.771 57.833,50.177 57.655,49.612 57.437 C 49.046 57.220,47.983 56.909,47.250 56.748 C 46.517 56.587,45.579 56.304,45.167 56.120 C 44.754 55.936,44.079 55.752,43.667 55.713 C 43.254 55.673,42.317 55.463,41.583 55.247 C 40.850 55.030,39.425 54.695,38.417 54.501 C 37.408 54.307,36.358 54.081,36.083 53.997 C 35.808 53.914,34.871 53.763,34.000 53.660 C 33.129 53.557,31.724 53.292,30.877 53.070 C 30.031 52.848,29.018 52.666,28.627 52.665 C 28.236 52.664,27.167 52.471,26.250 52.236 C 25.333 52.001,24.021 51.742,23.333 51.661 C 21.073 51.396,18.760 51.026,18.167 50.835 C 17.846 50.731,16.902 50.584,16.069 50.508 C 15.003 50.410,14.283 50.240,13.636 49.935 C 13.131 49.696,12.538 49.499,12.317 49.498 C 11.919 49.496,10.794 49.190,10.000 48.867 C 9.771 48.773,9.148 48.569,8.616 48.413 C 8.084 48.258,7.436 47.951,7.175 47.732 C 6.915 47.513,6.601 47.333,6.477 47.333 C 6.224 47.333,4.634 46.284,4.000 45.699 C 3.022 44.796,2.000 43.743,2.000 43.639 C 2.000 43.576,1.824 43.314,1.609 43.054 C 1.393 42.795,1.083 42.152,0.919 41.625 C 0.696 40.908,0.543 40.667,0.311 40.667 C 0.008 40.667,0.000 41.976,0.000 89.583 L 0.000 138.500 59.167 138.500 C 116.949 138.500,118.333 138.493,118.333 138.187 C 118.333 137.992,118.133 137.791,117.804 137.654 C 116.708 137.200,114.936 135.081,114.332 133.500 C 114.209 133.179,113.967 132.711,113.794 132.460 C 113.621 132.209,113.436 131.721,113.383 131.377 C 113.329 131.032,113.119 130.450,112.915 130.083 C 111.998 128.434,111.670 122.426,112.233 117.583 C 112.557 114.802,112.618 114.483,112.948 113.821 C 113.087 113.541,113.262 112.827,113.335 112.233 C 113.409 111.640,113.545 111.063,113.638 110.952 C 113.730 110.840,114.050 109.999,114.347 109.083 C 114.645 108.166,114.984 107.267,115.102 107.083 C 115.219 106.900,115.395 106.389,115.494 105.948 C 115.592 105.507,115.821 104.987,116.003 104.792 C 116.185 104.597,116.333 104.369,116.333 104.285 C 116.333 104.202,116.633 103.502,117.000 102.730 C 117.367 101.958,117.667 101.271,117.667 101.202 C 117.667 101.134,117.843 100.816,118.057 100.497 C 118.272 100.178,118.494 99.728,118.551 99.497 C 118.608 99.266,118.799 98.921,118.976 98.731 C 119.153 98.541,119.429 98.130,119.590 97.818 C 119.751 97.505,120.059 97.018,120.275 96.734 C 120.490 96.451,120.667 96.139,120.667 96.042 C 120.667 95.944,120.929 95.551,121.250 95.167 C 121.571 94.783,121.833 94.380,121.833 94.271 C 121.833 94.163,122.040 93.836,122.292 93.546 C 122.544 93.255,123.047 92.545,123.410 91.967 C 124.045 90.957,124.459 90.409,125.512 89.182 C 125.781 88.870,126.000 88.547,126.000 88.465 C 126.000 88.383,126.429 87.776,126.953 87.116 C 127.478 86.456,127.963 85.842,128.032 85.750 C 128.101 85.658,128.347 85.366,128.579 85.101 C 128.810 84.835,129.000 84.573,129.000 84.517 C 129.000 84.462,129.419 83.967,129.931 83.417 C 131.660 81.558,132.096 80.628,131.635 79.781 C 131.526 79.580,131.343 78.967,131.229 78.417 C 130.957 77.111,130.772 76.456,130.348 75.296 C 130.157 74.771,130.000 74.225,130.000 74.082 C 130.000 73.939,129.811 73.449,129.580 72.993 C 129.349 72.538,129.114 71.809,129.057 71.374 C 129.001 70.939,128.820 70.299,128.655 69.951 C 128.491 69.604,128.310 69.105,128.252 68.843 C 127.971 67.563,126.748 68.226,125.996 70.067 C 125.848 70.431,122.350 74.058,121.333 74.902 C 120.839 75.312,119.393 76.315,117.526 77.541 C 117.283 77.701,116.951 77.832,116.789 77.832 C 116.626 77.833,116.072 78.058,115.557 78.333 C 115.041 78.608,114.449 78.833,114.241 78.833 C 114.033 78.833,113.388 78.982,112.807 79.165 C 110.928 79.753,108.410 79.252,107.461 78.100 C 107.303 77.908,107.104 77.668,107.021 77.568 C 106.323 76.731,105.848 74.878,105.839 72.958 C 105.833 71.582,105.528 71.217,105.039 72.000 C 104.924 72.183,104.749 72.333,104.650 72.333 C 104.551 72.333,104.158 72.687,103.776 73.119 C 101.910 75.234,96.486 79.998,95.943 80.000 C 95.866 80.000,95.603 80.153,95.360 80.341 C 94.643 80.892,93.185 81.833,93.049 81.833 C 92.980 81.833,92.500 82.094,91.983 82.414 C 91.052 82.988,90.131 83.281,87.621 83.798 C 84.884 84.362,81.870 82.961,80.883 80.667 C 80.745 80.346,80.501 79.783,80.341 79.417 C 79.672 77.886,79.510 73.944,79.931 69.493 C 80.059 68.144,79.819 67.818,78.936 68.137 C 77.301 68.728,76.903 67.377,78.331 66.085 C 78.516 65.918,78.667 65.721,78.667 65.647 C 78.667 65.572,79.074 64.887,79.571 64.124 C 80.068 63.361,80.573 62.515,80.693 62.244 C 80.812 61.972,81.118 61.417,81.372 61.009 C 81.626 60.602,81.833 60.161,81.833 60.030 C 81.833 59.572,83.065 57.245,83.684 56.533 C 86.237 53.595,87.693 54.663,86.653 58.711 C 86.459 59.466,86.240 60.504,86.166 61.018 C 86.092 61.532,85.837 62.365,85.599 62.868 C 85.361 63.371,85.165 64.000,85.163 64.266 C 85.161 64.532,84.974 65.275,84.747 65.917 C 84.520 66.558,84.334 67.308,84.333 67.583 C 84.332 67.858,84.261 68.346,84.175 68.667 C 83.378 71.645,83.758 76.409,84.881 77.533 C 85.099 77.750,85.346 78.038,85.430 78.172 C 86.654 80.121,92.669 80.173,94.969 78.254 C 95.215 78.048,95.656 77.758,95.948 77.608 C 96.241 77.458,96.578 77.202,96.698 77.040 C 96.818 76.877,97.142 76.601,97.417 76.426 C 98.296 75.865,102.350 71.627,103.430 70.138 C 103.785 69.649,104.208 69.152,104.372 69.032 C 104.535 68.911,104.789 68.581,104.935 68.297 C 105.082 68.014,105.606 67.305,106.101 66.722 C 106.595 66.139,107.000 65.598,107.000 65.519 C 107.000 65.440,107.417 64.867,107.926 64.246 C 108.436 63.624,109.007 62.808,109.195 62.433 C 109.384 62.057,109.670 61.600,109.832 61.417 C 109.994 61.233,110.229 60.884,110.355 60.640 C 110.480 60.397,110.933 59.797,111.359 59.307 C 111.786 58.817,112.440 58.058,112.813 57.620 C 113.186 57.182,113.849 56.523,114.287 56.154 C 114.725 55.786,115.308 55.278,115.583 55.025 C 117.279 53.464,121.122 51.442,122.726 51.266 C 123.263 51.208,123.852 51.079,124.035 50.981 C 124.388 50.793,125.207 50.848,126.583 51.155 C 127.757 51.416,128.186 51.268,129.123 50.282 C 131.751 47.514,133.416 47.761,132.833 50.833 C 132.742 51.316,132.667 52.411,132.667 53.265 C 132.667 54.118,132.594 55.177,132.504 55.617 C 132.415 56.057,132.263 57.354,132.167 58.500 C 132.071 59.646,131.946 60.987,131.890 61.481 C 131.833 61.974,131.877 63.024,131.988 63.814 C 132.487 67.364,132.724 68.630,133.010 69.272 C 133.179 69.651,133.366 70.363,133.425 70.855 C 133.485 71.347,133.707 72.092,133.919 72.510 C 134.130 72.928,134.353 73.640,134.413 74.093 C 134.802 77.009,135.657 77.962,136.785 76.737 C 139.921 73.333,143.425 69.751,145.982 67.338 C 147.489 65.915,147.879 65.447,148.091 64.809 C 148.235 64.378,148.455 63.940,148.582 63.835 C 148.708 63.730,148.862 63.405,148.923 63.113 C 148.985 62.822,149.238 62.133,149.487 61.583 C 149.735 61.033,150.036 60.283,150.156 59.917 C 150.275 59.550,150.502 59.100,150.660 58.917 C 150.817 58.733,151.043 58.339,151.160 58.040 C 152.090 55.686,155.096 54.914,155.414 56.949 C 155.468 57.298,155.594 58.009,155.693 58.530 C 155.813 59.156,155.830 60.396,155.743 62.196 C 155.331 70.770,155.643 75.215,156.735 76.307 C 157.434 77.005,159.114 75.418,160.518 72.734 C 160.897 72.010,161.311 71.269,161.437 71.088 C 161.563 70.907,161.667 70.658,161.667 70.535 C 161.667 70.411,161.892 69.983,162.167 69.583 C 162.442 69.184,162.667 68.764,162.667 68.650 C 162.667 68.537,162.886 68.055,163.155 67.579 C 163.423 67.103,163.692 66.453,163.752 66.134 C 163.811 65.814,164.044 65.339,164.268 65.078 C 164.493 64.817,164.724 64.414,164.782 64.182 C 164.840 63.950,165.020 63.533,165.182 63.255 C 165.344 62.977,165.606 62.413,165.766 62.000 C 165.925 61.587,166.196 61.047,166.367 60.799 C 166.539 60.551,166.761 60.101,166.862 59.799 C 166.963 59.497,167.212 59.025,167.416 58.750 C 167.619 58.475,167.843 58.063,167.913 57.833 C 168.848 54.778,172.026 51.736,173.321 52.658 C 174.436 53.452,174.402 53.126,174.410 63.083 C 174.416 70.971,174.450 72.155,174.683 72.667 C 174.830 72.987,175.126 73.700,175.342 74.250 C 177.023 78.546,181.479 79.077,186.036 75.524 C 186.582 75.098,187.170 74.669,187.344 74.570 C 187.880 74.264,191.557 70.689,192.667 69.396 C 192.987 69.022,193.610 68.297,194.051 67.785 C 194.491 67.273,195.044 66.568,195.280 66.218 C 195.516 65.869,195.759 65.546,195.821 65.500 C 195.882 65.454,196.137 65.079,196.387 64.667 C 196.637 64.254,197.103 63.579,197.424 63.167 C 197.744 62.754,198.157 62.101,198.341 61.715 C 198.525 61.329,198.752 60.967,198.844 60.910 C 198.937 60.853,199.178 60.557,199.381 60.253 C 199.584 59.948,200.088 59.261,200.502 58.725 C 200.915 58.189,201.374 57.563,201.521 57.333 C 202.587 55.679,206.649 51.931,207.964 51.390 C 208.305 51.249,208.733 50.998,208.917 50.831 C 209.939 49.901,214.404 49.970,215.830 50.939 C 216.150 51.156,216.503 51.333,216.616 51.333 C 216.729 51.333,217.068 51.549,217.369 51.812 C 219.059 53.290,219.873 53.554,220.488 52.824 C 221.423 51.712,223.352 52.221,223.062 53.502 C 222.815 54.595,222.420 55.609,222.148 55.847 C 221.982 55.992,221.776 56.517,221.689 57.014 C 221.603 57.510,221.418 58.367,221.279 58.917 C 220.649 61.410,220.720 66.359,221.414 68.325 C 221.553 68.719,221.667 69.165,221.667 69.316 C 221.667 69.466,221.840 69.850,222.053 70.170 C 222.265 70.489,222.543 71.009,222.670 71.326 C 223.213 72.675,225.121 74.417,227.000 75.280 C 228.289 75.872,231.727 75.693,232.944 74.970 C 233.234 74.798,233.844 74.546,234.300 74.411 C 235.045 74.190,236.764 73.284,237.285 72.839 C 237.395 72.744,237.545 72.666,237.618 72.665 C 237.691 72.664,238.199 72.326,238.747 71.915 C 239.295 71.503,239.804 71.167,239.879 71.167 C 239.954 71.167,240.218 70.980,240.466 70.751 C 240.714 70.522,241.201 70.091,241.547 69.793 C 243.963 67.715,246.007 65.423,246.671 64.049 C 246.857 63.663,247.083 63.301,247.174 63.246 C 247.264 63.190,247.453 62.869,247.594 62.533 C 247.734 62.196,247.991 61.770,248.164 61.586 C 249.212 60.466,249.621 58.820,249.837 54.850 C 249.937 53.021,250.115 51.374,250.271 50.833 C 250.417 50.329,250.637 49.054,250.760 48.000 C 250.883 46.946,251.172 45.071,251.402 43.833 C 252.374 38.606,252.287 38.071,250.547 38.582 C 250.109 38.711,248.997 38.893,248.077 38.986 C 247.156 39.080,245.895 39.313,245.273 39.505 C 244.651 39.697,243.379 39.923,242.446 40.008 C 241.513 40.092,240.412 40.238,240.000 40.333 C 239.588 40.429,238.756 40.576,238.151 40.662 C 237.547 40.748,236.572 40.896,235.985 40.991 C 235.397 41.086,234.442 41.165,233.861 41.165 C 233.281 41.166,232.231 41.309,231.528 41.484 C 227.982 42.365,217.158 42.554,215.064 41.772 C 214.708 41.639,213.992 41.365,213.474 41.164 C 211.226 40.291,210.610 37.643,212.300 36.114 C 213.148 35.346,217.568 34.438,218.423 34.856 C 219.222 35.246,219.058 35.609,217.538 36.817 L 217.034 37.218 217.415 37.901 C 217.671 38.361,217.978 38.648,218.356 38.782 C 219.444 39.168,228.363 38.953,230.750 38.483 C 233.124 38.016,234.262 37.846,236.095 37.684 C 237.201 37.587,238.588 37.396,239.178 37.261 C 239.768 37.125,241.300 36.888,242.583 36.733 C 243.867 36.578,245.367 36.396,245.917 36.328 C 246.467 36.260,247.367 36.091,247.917 35.953 C 248.467 35.815,249.517 35.652,250.250 35.591 C 252.520 35.402,253.167 34.878,253.167 33.226 C 253.167 33.108,253.284 32.667,253.427 32.245 C 253.661 31.556,253.856 30.531,254.346 27.417 C 254.433 26.867,254.614 26.036,254.748 25.571 C 254.882 25.106,255.043 24.169,255.104 23.488 C 255.168 22.782,255.378 21.892,255.593 21.417 C 255.800 20.958,256.024 20.208,256.090 19.750 C 256.157 19.292,256.346 18.617,256.511 18.250 C 256.883 17.422,257.333 16.062,257.333 15.767 C 257.333 15.645,257.470 15.366,257.636 15.147 C 257.803 14.929,258.044 14.487,258.172 14.167 C 259.146 11.721,262.042 8.048,263.384 7.554 C 264.486 7.149,265.667 7.424,265.667 8.086 C 265.667 8.164,265.811 8.383,265.988 8.573 C 267.056 9.718,267.063 14.987,266.001 19.667 C 265.908 20.079,265.759 21.104,265.671 21.943 C 265.569 22.919,265.389 23.687,265.172 24.073 C 264.986 24.405,264.832 24.881,264.831 25.130 C 264.830 25.379,264.713 25.996,264.570 26.500 C 263.853 29.029,263.652 29.845,263.481 30.917 C 263.379 31.558,263.145 32.296,262.960 32.555 C 262.203 33.620,263.192 34.095,265.283 33.671 C 265.723 33.582,266.983 33.430,268.083 33.334 C 269.183 33.238,270.421 33.051,270.833 32.918 C 271.246 32.785,272.783 32.598,274.250 32.502 C 275.717 32.406,277.442 32.214,278.083 32.074 C 278.725 31.934,280.188 31.755,281.333 31.675 C 287.342 31.259,288.935 31.128,290.917 30.887 C 294.366 30.469,295.644 30.361,297.333 30.346 C 298.204 30.338,299.667 30.215,300.583 30.072 C 301.500 29.929,302.700 29.746,303.250 29.664 C 303.800 29.582,306.012 29.428,308.167 29.320 C 313.340 29.062,313.217 29.070,316.000 28.828 C 320.353 28.449,328.658 28.530,330.240 28.967 C 330.967 29.169,331.702 29.333,331.872 29.333 C 332.360 29.333,333.000 30.083,333.000 30.655 C 333.000 31.294,332.594 31.556,331.167 31.836 C 330.571 31.954,329.968 32.108,329.827 32.178 C 329.686 32.249,326.949 32.351,323.744 32.405 C 320.539 32.459,316.642 32.581,315.083 32.676 C 313.525 32.772,311.087 32.916,309.667 32.996 C 307.265 33.132,306.041 33.236,301.786 33.668 C 300.889 33.759,299.464 33.839,298.619 33.846 C 297.774 33.852,296.708 33.919,296.250 33.994 C 293.715 34.409,291.264 34.650,288.671 34.740 C 287.068 34.795,285.081 34.914,284.254 35.003 C 283.427 35.093,281.775 35.240,280.583 35.330 C 279.392 35.420,277.217 35.607,275.750 35.745 C 274.283 35.883,272.558 35.997,271.916 35.998 C 271.274 35.999,269.964 36.150,269.003 36.333 C 268.043 36.516,266.431 36.709,265.420 36.762 C 262.587 36.911,261.886 37.084,261.548 37.721 C 261.112 38.542,260.660 39.835,260.495 40.732 C 260.413 41.180,260.161 41.818,259.935 42.149 C 259.708 42.479,259.470 43.050,259.406 43.417 C 259.341 43.783,259.151 44.357,258.983 44.691 C 258.815 45.025,258.522 45.880,258.331 46.591 C 258.141 47.302,257.847 48.059,257.678 48.273 C 257.510 48.487,257.322 48.995,257.261 49.401 C 257.200 49.807,257.046 50.226,256.918 50.332 C 256.790 50.438,256.519 51.026,256.316 51.638 C 256.112 52.249,255.770 53.080,255.556 53.483 C 255.342 53.886,255.167 54.400,255.167 54.624 C 255.167 55.056,254.685 56.000,254.464 56.000 C 254.392 56.000,254.332 56.131,254.330 56.292 C 254.328 56.452,254.103 57.033,253.832 57.583 C 253.217 58.827,252.758 61.458,252.886 63.000 C 253.171 66.443,253.926 69.551,254.840 71.050 C 255.019 71.343,255.166 71.698,255.166 71.839 C 255.167 72.162,256.167 73.783,256.705 74.333 C 256.929 74.563,257.276 75.023,257.475 75.357 C 257.818 75.930,259.492 77.500,259.761 77.500 C 259.829 77.500,260.148 77.701,260.470 77.946 C 260.828 78.219,261.643 78.541,262.566 78.775 L 264.077 79.159 265.580 78.819 C 266.407 78.633,267.458 78.302,267.917 78.084 C 268.375 77.866,269.012 77.572,269.333 77.431 C 270.102 77.091,270.669 76.753,272.154 75.750 C 272.833 75.292,273.920 74.558,274.569 74.119 C 275.219 73.681,275.924 73.099,276.137 72.828 C 276.350 72.556,276.610 72.333,276.714 72.333 C 276.925 72.333,276.993 72.271,279.583 69.705 C 281.853 67.456,282.333 66.934,282.333 66.721 C 282.333 66.629,282.590 66.320,282.903 66.035 C 283.216 65.751,283.526 65.345,283.592 65.134 C 283.658 64.923,283.890 64.538,284.106 64.279 C 284.323 64.020,284.500 63.682,284.500 63.529 C 284.501 63.375,284.725 62.987,285.000 62.667 C 285.275 62.346,285.499 62.007,285.500 61.913 C 285.500 61.819,285.713 61.482,285.973 61.163 C 286.233 60.844,286.530 60.336,286.634 60.033 C 286.737 59.731,286.993 59.261,287.203 58.990 C 289.225 56.373,289.894 55.619,290.679 55.075 C 291.374 54.593,292.399 54.573,292.692 55.036 C 292.877 55.327,292.862 58.774,292.674 59.500 C 292.112 61.658,292.011 62.176,292.006 62.945 C 292.003 63.419,291.813 64.749,291.583 65.900 C 291.099 68.332,291.009 71.655,291.393 72.869 C 291.517 73.262,291.717 73.921,291.838 74.333 C 292.681 77.225,294.883 78.532,297.208 77.522 C 297.887 77.228,300.422 74.867,301.539 73.489 C 301.655 73.346,302.058 72.858,302.434 72.405 C 302.811 71.951,303.176 71.394,303.245 71.165 C 303.315 70.937,303.546 70.517,303.759 70.233 C 304.321 69.483,305.160 67.129,305.578 65.136 C 305.706 64.524,305.928 63.843,306.072 63.624 C 306.216 63.404,306.416 62.783,306.515 62.244 C 306.615 61.705,306.835 60.999,307.005 60.674 C 307.175 60.349,307.478 59.652,307.677 59.125 C 307.876 58.598,308.102 58.167,308.179 58.167 C 308.257 58.167,308.407 57.875,308.514 57.518 C 308.852 56.390,310.916 54.229,311.816 54.060 C 312.976 53.842,313.385 55.727,312.727 58.250 C 311.809 61.771,311.774 67.900,312.656 70.750 C 312.827 71.300,313.019 72.012,313.084 72.333 C 313.149 72.654,313.335 73.067,313.496 73.250 C 313.658 73.433,313.835 73.771,313.889 74.000 C 314.195 75.275,316.105 77.126,317.771 77.760 C 319.811 78.537,320.094 78.591,320.875 78.352 C 321.265 78.233,322.224 77.962,323.007 77.750 C 323.789 77.537,324.689 77.215,325.007 77.033 C 325.324 76.852,325.883 76.611,326.250 76.498 C 326.617 76.385,327.067 76.162,327.250 76.002 C 327.433 75.842,328.071 75.406,328.667 75.033 C 329.262 74.660,330.012 74.159,330.333 73.920 C 331.991 72.685,332.305 72.440,332.958 71.869 C 334.820 70.240,338.713 66.280,339.250 65.468 C 339.998 64.336,340.439 63.701,340.672 63.417 C 340.823 63.233,341.048 62.821,341.172 62.500 C 341.297 62.179,341.521 61.804,341.671 61.667 C 342.011 61.355,343.099 59.243,343.237 58.626 C 343.317 58.266,343.247 58.090,342.903 57.793 C 340.733 55.921,340.601 52.952,342.507 48.917 C 343.842 46.092,345.413 45.416,347.287 46.862 C 349.072 48.239,349.422 50.873,348.150 53.365 C 347.522 54.596,348.046 54.834,352.099 55.159 C 355.002 55.392,356.403 56.267,357.153 58.315 C 357.598 59.528,357.847 63.351,357.522 63.959 C 357.432 64.127,357.274 64.898,357.171 65.674 C 357.064 66.481,356.810 67.447,356.575 67.933 C 355.856 69.429,355.962 72.472,356.788 74.005 C 357.783 75.854,360.200 76.763,362.083 75.997 C 362.358 75.885,363.096 75.658,363.723 75.493 C 364.349 75.328,364.987 75.081,365.139 74.944 C 365.292 74.807,365.754 74.560,366.167 74.396 C 366.579 74.232,367.089 73.926,367.299 73.715 C 367.510 73.505,367.762 73.333,367.860 73.333 C 368.071 73.333,368.917 72.679,369.932 71.730 C 370.629 71.079,370.667 70.996,370.667 70.124 C 370.667 69.603,370.841 68.673,371.069 67.977 C 371.290 67.302,371.556 66.232,371.661 65.598 C 371.766 64.965,371.957 64.244,372.085 63.996 C 372.213 63.749,372.445 63.030,372.601 62.398 C 372.757 61.767,373.015 61.062,373.175 60.832 C 373.335 60.602,373.555 60.077,373.665 59.665 C 373.775 59.253,373.984 58.783,374.130 58.619 C 374.277 58.455,374.613 57.892,374.878 57.369 C 375.143 56.845,375.512 56.117,375.698 55.750 C 376.134 54.891,377.126 53.378,377.341 53.245 C 377.433 53.189,377.818 52.717,378.198 52.196 C 381.978 47.022,387.700 46.034,387.661 50.563 C 387.653 51.469,387.282 52.922,386.848 53.744 C 386.657 54.107,386.500 54.587,386.500 54.811 C 386.500 55.035,386.315 55.461,386.090 55.756 C 385.864 56.052,385.552 56.622,385.396 57.022 C 385.239 57.422,384.982 57.938,384.825 58.167 C 384.667 58.396,384.422 58.863,384.279 59.204 C 384.137 59.546,383.866 59.991,383.677 60.194 C 383.488 60.397,383.333 60.623,383.333 60.697 C 383.333 60.770,383.072 61.187,382.753 61.624 C 382.434 62.060,381.965 62.701,381.711 63.049 C 381.458 63.396,381.063 63.878,380.833 64.118 C 380.604 64.359,380.304 64.719,380.167 64.919 C 379.943 65.244,377.562 67.889,376.503 68.988 C 374.699 70.861,374.284 73.056,375.424 74.690 C 375.703 75.090,376.020 75.623,376.129 75.875 C 376.237 76.127,376.384 76.333,376.455 76.334 C 376.525 76.334,376.808 76.528,377.083 76.767 C 377.358 77.005,377.958 77.388,378.417 77.619 C 378.875 77.850,379.355 78.124,379.484 78.228 C 380.485 79.035,385.527 78.964,386.449 78.130 C 386.621 77.974,387.048 77.727,387.398 77.581 C 388.032 77.315,389.805 76.026,390.750 75.143 C 392.429 73.573,394.330 71.526,395.117 70.441 C 395.373 70.087,395.865 69.509,396.208 69.155 C 396.552 68.802,396.833 68.427,396.833 68.323 C 396.833 67.595,398.984 65.500,399.731 65.500 C 399.978 65.500,400.000 62.777,400.000 32.750 L 400.000 0.000 247.935 0.000 L 95.871 0.000 95.803 1.197 C 95.762 1.930,95.658 2.420,95.535 2.461 C 95.424 2.498,95.333 2.628,95.333 2.750 C 95.333 2.872,95.273 2.997,95.198 3.028 C 94.906 3.148,93.800 5.800,93.905 6.130 C 94.002 6.437,94.440 6.659,94.961 6.664 C 95.447 6.670,95.745 5.556,95.533 4.528 C 95.245 3.138,95.265 3.000,95.754 3.000 C 96.032 3.000,96.234 2.869,96.351 2.611 C 96.564 2.143,98.141 1.333,98.839 1.333 C 100.115 1.333,100.392 4.182,99.223 5.284 C 99.009 5.486,98.833 5.721,98.833 5.806 C 98.833 6.019,97.463 7.333,97.241 7.333 C 97.143 7.333,96.852 7.553,96.595 7.821 C 96.338 8.090,95.893 8.404,95.605 8.519 C 95.318 8.635,94.851 8.903,94.568 9.115 C 94.284 9.327,93.976 9.500,93.884 9.500 C 93.792 9.500,93.387 9.724,92.983 9.997 C 92.165 10.552,90.683 10.691,90.123 10.266 C 89.528 9.815,90.055 6.662,90.974 5.167 C 91.171 4.846,91.332 4.394,91.333 4.163 C 91.333 3.932,91.544 3.482,91.802 3.163 C 92.060 2.844,92.366 2.347,92.482 2.058 C 92.598 1.769,92.875 1.362,93.097 1.154 C 93.319 0.946,93.500 0.601,93.500 0.388 L 93.500 0.000 46.750 0.000 L 0.000 0.000 0.000 16.500 M262.467 13.636 C 261.740 14.164,260.804 15.873,260.420 17.372 C 260.277 17.931,260.021 18.621,259.851 18.903 C 259.681 19.186,259.498 19.818,259.444 20.309 C 259.389 20.800,259.281 21.288,259.202 21.393 C 258.935 21.751,258.549 23.417,258.169 25.860 C 258.073 26.471,257.879 27.249,257.737 27.589 C 257.595 27.929,257.403 28.892,257.310 29.729 C 257.218 30.565,257.008 31.554,256.845 31.926 C 255.956 33.948,256.205 34.530,257.931 34.466 L 259.250 34.417 259.707 33.564 C 259.996 33.024,260.230 32.230,260.345 31.397 C 260.445 30.675,260.670 29.851,260.845 29.567 C 261.020 29.283,261.272 28.480,261.405 27.782 C 261.539 27.084,261.717 26.379,261.802 26.215 C 261.887 26.051,262.120 25.017,262.320 23.917 C 262.521 22.817,262.802 21.579,262.946 21.167 C 263.090 20.754,263.275 19.817,263.358 19.083 C 263.442 18.350,263.651 16.962,263.825 16.000 L 264.140 14.250 263.611 13.719 L 263.083 13.189 262.467 13.636 M256.723 37.822 C 255.563 38.011,255.295 38.503,255.094 40.807 C 255.043 41.389,254.858 42.190,254.682 42.587 C 254.506 42.985,254.311 43.822,254.248 44.447 C 254.185 45.072,253.954 46.326,253.734 47.233 C 253.114 49.787,253.211 51.272,253.933 50.289 C 254.795 49.114,254.961 48.787,255.059 48.074 C 255.115 47.666,255.324 47.014,255.525 46.624 C 256.005 45.693,256.780 43.550,257.185 42.038 C 257.363 41.372,257.664 40.529,257.853 40.166 C 258.538 38.853,258.405 37.592,257.593 37.688 C 257.496 37.699,257.104 37.759,256.723 37.822 M382.005 52.289 C 381.779 52.331,381.458 52.527,381.291 52.725 C 380.374 53.808,380.102 54.141,379.663 54.723 C 379.397 55.075,379.131 55.525,379.071 55.723 C 379.010 55.921,378.792 56.309,378.586 56.585 C 378.380 56.861,378.158 57.327,378.093 57.621 C 378.029 57.915,377.804 58.408,377.595 58.717 C 377.385 59.026,377.061 59.722,376.873 60.264 C 376.686 60.806,376.417 61.587,376.276 62.000 C 376.135 62.413,375.935 63.229,375.832 63.815 C 375.728 64.400,375.542 65.038,375.418 65.231 C 375.047 65.808,374.921 66.813,375.206 66.923 C 375.464 67.022,377.833 64.892,377.833 64.560 C 377.833 64.458,377.959 64.271,378.112 64.145 C 378.619 63.728,380.782 60.920,381.147 60.204 C 381.345 59.817,381.571 59.500,381.650 59.500 C 381.729 59.500,381.889 59.267,382.007 58.983 C 382.125 58.699,382.396 58.209,382.609 57.895 C 383.751 56.212,384.010 53.694,383.155 52.606 C 382.807 52.163,382.754 52.149,382.005 52.289 M211.583 54.114 C 210.760 54.236,208.440 55.003,208.169 55.243 C 208.030 55.366,207.619 55.590,207.256 55.740 C 206.892 55.890,206.555 56.070,206.506 56.139 C 206.457 56.209,206.154 56.446,205.833 56.666 C 204.398 57.650,202.293 59.809,201.263 61.354 C 200.812 62.030,200.318 62.771,200.165 63.000 C 199.545 63.929,198.549 66.531,198.434 67.522 C 198.385 67.947,198.231 68.622,198.092 69.022 C 197.823 69.794,197.739 71.922,197.972 72.066 C 198.048 72.113,198.206 72.586,198.323 73.117 C 198.705 74.851,199.446 75.963,200.481 76.358 C 201.151 76.614,203.083 76.369,203.431 75.984 C 203.589 75.810,203.809 75.667,203.920 75.667 C 204.464 75.667,207.282 73.405,208.983 71.604 C 209.405 71.157,210.200 70.337,210.750 69.781 C 211.300 69.225,211.900 68.568,212.083 68.321 C 212.267 68.074,212.809 67.395,213.288 66.811 C 213.767 66.228,214.405 65.428,214.705 65.035 C 215.005 64.641,215.484 64.055,215.770 63.732 C 216.768 62.603,216.820 62.366,216.183 61.847 C 215.560 61.338,215.564 61.456,216.070 58.673 C 216.648 55.489,214.825 53.636,211.583 54.114 M121.604 54.778 C 121.340 54.823,120.972 55.002,120.785 55.176 C 120.598 55.350,120.177 55.578,119.848 55.683 C 119.519 55.788,119.063 56.042,118.833 56.248 C 118.604 56.454,118.287 56.690,118.129 56.774 C 117.706 56.997,115.789 58.872,115.442 59.402 C 115.095 59.931,114.563 60.583,114.077 61.073 C 113.890 61.262,113.411 61.979,113.012 62.667 C 112.613 63.354,112.151 64.115,111.984 64.358 C 111.818 64.601,111.630 65.014,111.567 65.275 C 111.505 65.536,111.243 66.221,110.985 66.797 C 109.831 69.373,109.894 73.244,111.110 74.559 C 113.686 77.347,117.498 76.313,121.715 71.683 C 122.246 71.101,122.801 70.390,122.948 70.104 C 123.096 69.817,123.355 69.485,123.525 69.366 C 123.695 69.246,123.833 69.045,123.833 68.920 C 123.833 68.795,124.021 68.469,124.250 68.197 C 124.479 67.925,124.667 67.649,124.667 67.585 C 124.667 67.521,124.930 66.914,125.251 66.236 C 125.573 65.558,125.920 64.609,126.022 64.127 C 126.125 63.645,126.338 63.063,126.495 62.833 C 127.246 61.743,127.376 57.718,126.689 56.864 C 126.491 56.618,126.250 56.264,126.154 56.078 C 125.639 55.078,123.480 54.461,121.604 54.778 M346.139 59.281 C 345.986 59.320,345.435 59.985,344.915 60.759 C 344.395 61.533,343.900 62.209,343.816 62.261 C 343.731 62.313,343.551 62.622,343.415 62.947 C 343.198 63.466,342.807 64.014,341.928 65.033 C 341.794 65.188,341.557 65.563,341.402 65.866 C 341.247 66.169,340.681 66.914,340.143 67.522 C 339.606 68.130,339.167 68.682,339.167 68.747 C 339.167 68.958,333.736 74.274,333.192 74.595 C 332.903 74.766,332.667 74.962,332.667 75.031 C 332.667 75.100,332.273 75.418,331.792 75.737 C 331.310 76.056,330.617 76.545,330.250 76.822 C 329.883 77.099,329.190 77.524,328.708 77.766 C 328.227 78.008,327.833 78.266,327.833 78.339 C 327.833 78.412,327.490 78.603,327.071 78.764 C 326.652 78.924,326.144 79.184,325.942 79.343 C 325.741 79.502,325.202 79.746,324.746 79.887 C 324.290 80.028,323.467 80.309,322.917 80.512 C 321.546 81.018,318.072 81.216,316.441 80.881 C 313.948 80.368,310.912 78.010,309.660 75.616 C 309.478 75.267,309.180 74.821,308.998 74.626 C 308.816 74.430,308.667 74.174,308.667 74.057 C 308.667 73.939,308.479 73.433,308.250 72.932 C 308.021 72.431,307.833 71.969,307.833 71.905 C 307.833 71.842,307.680 71.541,307.493 71.238 L 307.152 70.687 306.563 71.087 C 306.001 71.468,305.237 72.362,304.641 73.338 C 304.489 73.586,304.114 74.127,303.807 74.539 C 303.501 74.951,303.100 75.505,302.917 75.769 C 302.629 76.184,301.516 77.426,300.209 78.789 C 299.638 79.386,297.796 80.601,297.155 80.805 C 293.791 81.872,291.348 81.542,289.755 79.805 C 288.882 78.852,287.749 76.627,287.606 75.583 C 287.544 75.125,287.414 74.375,287.317 73.917 C 287.013 72.481,286.939 68.876,287.187 67.583 C 287.435 66.286,287.482 65.093,287.293 64.904 C 287.078 64.690,284.504 67.634,284.498 68.099 C 284.493 68.546,278.873 73.979,277.123 75.228 C 276.506 75.668,276.000 76.093,276.000 76.170 C 276.000 76.248,275.853 76.357,275.674 76.414 C 275.495 76.471,274.990 76.814,274.552 77.176 C 274.114 77.537,273.693 77.833,273.616 77.833 C 273.540 77.833,273.150 78.058,272.750 78.333 C 272.350 78.608,271.949 78.833,271.858 78.833 C 271.767 78.833,271.467 79.023,271.192 79.254 C 270.917 79.486,270.442 79.758,270.137 79.859 C 269.833 79.960,269.123 80.258,268.560 80.522 C 267.996 80.785,267.438 81.000,267.318 81.000 C 267.198 81.000,266.459 81.199,265.675 81.442 C 259.066 83.492,252.870 79.208,250.935 71.250 C 250.735 70.425,250.450 69.525,250.303 69.250 C 250.144 68.952,249.987 68.076,249.915 67.083 C 249.726 64.494,249.535 64.332,248.492 65.875 C 248.104 66.448,247.618 67.104,247.411 67.333 C 244.367 70.707,244.491 70.581,241.752 73.083 C 240.949 73.817,240.092 74.529,239.847 74.667 C 239.602 74.804,238.980 75.233,238.464 75.620 C 237.949 76.007,237.249 76.480,236.910 76.671 C 236.570 76.861,236.185 77.124,236.055 77.254 C 235.925 77.385,235.503 77.582,235.118 77.692 C 234.732 77.803,234.228 78.023,233.997 78.181 C 233.766 78.339,233.166 78.593,232.663 78.745 C 232.161 78.897,231.428 79.185,231.035 79.386 C 229.974 79.926,225.230 79.926,224.333 79.385 C 224.012 79.192,223.563 78.981,223.333 78.915 C 221.699 78.448,218.984 75.467,218.327 73.417 C 218.210 73.051,217.938 72.421,217.724 72.018 C 217.509 71.614,217.333 71.028,217.333 70.716 C 217.333 69.872,216.991 68.667,216.751 68.667 C 216.235 68.667,215.338 69.206,214.756 69.866 C 214.409 70.260,213.687 71.071,213.152 71.667 C 212.618 72.262,211.896 73.087,211.549 73.500 C 209.142 76.356,206.111 79.179,204.750 79.832 C 204.475 79.963,204.063 80.192,203.833 80.339 C 202.427 81.241,199.097 81.369,197.443 80.584 C 195.911 79.858,194.345 77.601,194.087 75.750 C 193.802 73.703,193.116 73.166,192.107 74.199 C 191.373 74.952,189.611 76.573,189.064 77.000 C 187.950 77.869,186.837 78.649,186.333 78.913 C 184.641 79.800,184.225 79.990,183.968 79.995 C 183.813 79.998,183.641 80.073,183.586 80.162 C 182.911 81.255,175.611 81.428,174.526 80.376 C 174.403 80.257,174.085 80.047,173.820 79.910 C 173.285 79.633,172.167 78.572,172.167 78.341 C 172.167 78.259,171.978 77.968,171.747 77.694 C 170.836 76.610,170.449 74.205,170.593 70.500 C 170.841 64.071,170.691 62.336,169.790 61.206 C 169.599 60.967,169.167 61.222,169.167 61.575 C 169.167 61.685,168.993 61.938,168.781 62.138 C 168.445 62.453,168.022 63.228,166.760 65.833 C 166.604 66.154,166.334 66.675,166.160 66.992 C 165.985 67.308,165.767 67.758,165.674 67.992 C 165.581 68.225,165.431 68.529,165.340 68.667 C 165.118 69.005,163.833 71.759,163.833 71.898 C 163.833 71.958,163.571 72.390,163.250 72.856 C 162.929 73.322,162.667 73.797,162.667 73.910 C 162.667 74.023,162.517 74.251,162.333 74.417 C 162.150 74.583,162.000 74.802,162.000 74.904 C 162.000 75.079,161.115 76.252,160.292 77.168 C 156.244 81.671,152.983 80.857,152.003 75.099 C 151.841 74.147,151.650 73.275,151.579 73.160 C 151.508 73.045,151.367 71.519,151.267 69.769 C 151.108 67.023,151.045 66.580,150.806 66.534 C 150.647 66.504,150.485 66.618,150.427 66.802 C 150.371 66.978,149.989 67.489,149.580 67.936 C 148.641 68.961,148.816 68.790,147.250 70.209 C 146.517 70.873,145.654 71.706,145.333 72.060 C 145.012 72.414,142.931 74.526,140.708 76.753 C 136.184 81.285,136.238 81.196,136.977 82.877 C 137.275 83.554,137.441 84.377,137.909 87.500 C 138.026 88.279,138.196 89.104,138.286 89.333 C 138.376 89.563,138.541 90.462,138.653 91.333 C 138.766 92.204,139.021 93.517,139.220 94.250 C 139.786 96.328,139.777 108.361,139.208 110.481 C 139.002 111.250,138.833 112.225,138.832 112.648 C 138.831 113.071,138.686 114.092,138.511 114.917 C 138.335 115.742,137.995 117.354,137.755 118.500 C 137.515 119.646,137.176 120.883,137.003 121.250 C 136.830 121.617,136.637 122.217,136.574 122.583 C 136.511 122.950,136.322 123.513,136.154 123.833 C 135.987 124.154,135.497 125.204,135.066 126.167 C 134.635 127.129,134.087 128.153,133.849 128.442 C 133.320 129.086,132.537 130.171,132.277 130.624 C 131.572 131.849,128.481 135.168,127.193 136.083 C 126.806 136.358,126.285 136.738,126.036 136.927 C 125.787 137.116,125.227 137.404,124.792 137.566 C 124.225 137.777,124.000 137.952,124.000 138.180 C 124.000 138.495,126.095 138.500,262.000 138.500 L 400.000 138.500 400.000 103.500 C 400.000 73.792,399.965 68.500,399.769 68.500 C 399.514 68.500,399.115 69.038,398.924 69.641 C 398.547 70.833,395.281 74.590,392.678 76.827 C 392.454 77.019,391.817 77.582,391.261 78.079 C 390.705 78.575,389.993 79.211,389.678 79.491 C 389.364 79.771,389.017 80.000,388.907 80.000 C 388.797 80.000,388.610 80.118,388.490 80.262 C 388.370 80.406,387.967 80.677,387.594 80.864 C 387.222 81.051,386.767 81.339,386.583 81.504 C 386.400 81.669,385.912 81.892,385.500 82.001 C 385.087 82.109,384.618 82.316,384.457 82.460 C 383.798 83.048,379.917 83.334,378.044 82.932 C 376.342 82.567,372.961 80.024,372.580 78.822 C 372.510 78.602,372.283 78.158,372.075 77.836 C 371.867 77.513,371.644 76.987,371.578 76.667 C 371.412 75.849,370.925 74.955,370.510 74.705 C 370.036 74.418,369.660 74.620,367.770 76.179 C 366.926 76.875,363.036 78.831,362.489 78.835 C 362.358 78.836,361.840 79.027,361.340 79.260 C 359.891 79.935,355.826 80.085,355.266 79.484 C 353.003 77.057,352.176 73.084,352.928 68.250 C 354.033 61.141,353.992 60.662,352.224 59.918 C 351.171 59.475,347.059 59.044,346.139 59.281 M132.122 84.923 C 131.780 85.155,131.500 85.408,131.500 85.485 C 131.500 85.562,131.256 85.893,130.958 86.220 C 130.660 86.548,130.117 87.205,129.750 87.682 C 129.383 88.158,128.877 88.791,128.625 89.088 C 128.373 89.385,128.167 89.683,128.167 89.752 C 128.167 89.820,127.923 90.154,127.625 90.493 C 126.570 91.693,126.177 92.255,126.076 92.706 C 126.020 92.957,125.755 93.318,125.487 93.509 C 125.219 93.700,125.000 93.933,125.000 94.027 C 125.000 94.121,124.831 94.429,124.625 94.710 C 124.419 94.992,124.100 95.494,123.917 95.827 C 123.360 96.838,122.942 97.499,122.399 98.224 C 122.115 98.605,121.824 99.104,121.752 99.333 C 121.681 99.563,121.496 99.938,121.341 100.167 C 121.185 100.396,120.960 100.846,120.839 101.167 C 120.719 101.487,120.491 101.867,120.332 102.009 C 120.173 102.152,119.988 102.452,119.921 102.676 C 119.854 102.900,119.614 103.405,119.388 103.798 C 119.163 104.192,118.862 104.904,118.720 105.382 C 118.579 105.859,118.324 106.445,118.154 106.684 C 117.985 106.922,117.764 107.482,117.664 107.928 C 117.564 108.374,117.344 108.967,117.176 109.245 C 117.007 109.523,116.818 110.013,116.754 110.333 C 116.636 110.934,116.573 111.154,115.992 113.000 C 114.542 117.606,115.320 127.146,117.362 129.814 C 117.530 130.033,117.667 130.311,117.667 130.433 C 117.667 130.555,117.876 130.901,118.132 131.203 C 118.388 131.504,118.728 131.956,118.886 132.209 C 119.045 132.461,119.492 132.869,119.879 133.116 C 120.266 133.363,120.758 133.719,120.972 133.908 C 121.710 134.558,124.306 134.403,125.667 133.627 C 126.691 133.043,129.000 131.023,129.000 130.710 C 129.000 130.631,129.262 130.311,129.583 130.000 C 129.904 129.689,130.167 129.346,130.167 129.238 C 130.167 129.129,130.278 128.949,130.413 128.836 C 130.716 128.585,132.104 126.295,132.262 125.787 C 132.325 125.583,132.507 125.229,132.666 125.000 C 133.149 124.305,134.294 120.656,134.405 119.462 C 134.462 118.846,134.655 118.000,134.834 117.583 C 135.058 117.059,135.237 115.963,135.413 114.037 C 135.552 112.504,135.754 110.763,135.861 110.167 C 136.204 108.252,136.108 99.897,135.705 96.583 C 135.515 95.025,135.309 93.233,135.247 92.602 C 135.186 91.971,134.999 91.137,134.833 90.750 C 134.667 90.363,134.478 89.529,134.413 88.898 C 134.236 87.190,133.291 84.500,132.868 84.500 C 132.800 84.500,132.464 84.690,132.122 84.923 " stroke="none" fill="#ffffff" fill-rule="evenodd"></path></g></svg>